<?xml version="1.0" encoding="UTF-8"?>
<svg xmlns="http://www.w3.org/2000/svg" xmlns:xlink="http://www.w3.org/1999/xlink" width="250pt" height="125pt" viewBox="0 0 250 125" version="1.1">
<g id="surface1">
<path style=" stroke:none;fill-rule:nonzero;fill:rgb(0%,0%,0%);fill-opacity:1;" d="M 119.792969 10.417969 L 130.207031 10.417969 L 130.207031 20.832031 L 132.8125 20.832031 C 137.136719 20.832031 140.625 24.324219 140.625 28.644531 L 140.625 46.875 L 138.332031 49.167969 L 146.875 63.957031 C 152.65625 58.28125 156.25 50.417969 156.25 41.667969 L 166.667969 41.667969 C 166.667969 54.269531 161.09375 65.574219 152.238281 73.230469 L 168.59375 101.5625 L 169.269531 113.125 L 159.53125 106.769531 L 143.542969 79.011719 C 138.019531 81.769531 131.667969 83.332031 125 83.332031 C 118.332031 83.332031 111.980469 81.769531 106.457031 79.011719 L 90.46875 106.769531 L 80.730469 113.125 L 81.40625 101.5625 L 111.667969 49.167969 L 109.375 46.875 L 109.375 28.644531 C 109.375 24.324219 112.863281 20.832031 117.1875 20.832031 L 119.792969 20.832031 L 119.792969 10.417969 M 111.667969 69.949219 C 115.730469 71.875 120.261719 72.917969 125 72.917969 C 129.738281 72.917969 134.269531 71.875 138.332031 69.949219 L 130.730469 56.769531 L 130.675781 56.769531 C 127.449219 59.894531 122.550781 59.894531 119.324219 56.769531 L 119.269531 56.769531 L 111.667969 69.949219 M 125 31.25 C 122.136719 31.25 119.792969 33.59375 119.792969 36.457031 C 119.792969 39.324219 122.136719 41.667969 125 41.667969 C 127.863281 41.667969 130.207031 39.324219 130.207031 36.457031 C 130.207031 33.59375 127.863281 31.25 125 31.25 Z M 125 31.25 "/>
</g>
</svg>
