<svg xmlns="http://www.w3.org/2000/svg" xmlns:xlink="http://www.w3.org/1999/xlink" width="152.06306225033836" height="110.20720711432443" version="1.1" style=""><rect id="backgroundrect" width="100%" height="100%" x="0" y="0" fill="none" stroke="none" class="" style=""/>

<g class="currentLayer" style=""><title>Layer 1</title><g id="surface1" class="">
<path style=" stroke:none;fill-rule:nonzero;fill:rgb(0%,0%,0%);fill-opacity:1;" d="M39.96340000629425,1.801801860332489 L50.37746200629425,1.801801860332489 L50.37746200629425,12.21586386033249 L52.98293100629425,12.21586386033249 C57.30715000629425,12.21586386033249 60.79543100629425,15.708051860332489 60.79543100629425,20.02836386033249 L60.79543100629425,38.25883286033249 L58.50246200629425,40.55180186033249 L67.04543100629425,55.34086386033249 C72.82668100629425,49.66508286033249 76.42043100629425,41.80180186033249 76.42043100629425,33.05180186033249 L86.83840000629425,33.05180186033249 C86.83840000629425,45.65336386033249 81.26418100629425,56.95805186033249 72.40871200629425,64.61430186033249 L88.76418100629425,92.94633286033249 L89.43996200629425,104.50883286033249 L79.70168100629425,98.15336386033249 L63.71340000629425,70.39555186033249 C58.18996200629425,73.15336386033249 51.83840000629425,74.71586386033249 45.17043100629425,74.71586386033249 C38.50246200629425,74.71586386033249 32.15090000629425,73.15336386033249 26.62746200629425,70.39555186033249 L10.639181006294251,98.15336386033249 L0.9009000062942505,104.50883286033249 L1.5766810062942511,92.94633286033249 L31.83840000629425,40.55180186033249 L29.54543100629425,38.25883286033249 L29.54543100629425,20.02836386033249 C29.54543100629425,15.708051860332489 33.03371200629425,12.21586386033249 37.35793100629425,12.21586386033249 L39.96340000629425,12.21586386033249 L39.96340000629425,1.801801860332489 M31.83840000629425,61.33305186033249 C35.90090000629425,63.25883286033249 40.43215000629425,64.30180186033249 45.17043100629425,64.30180186033249 C49.90871200629425,64.30180186033249 54.43996200629425,63.25883286033249 58.50246200629425,61.33305186033249 L50.90090000629425,48.15336386033249 L50.84621200629425,48.15336386033249 C47.61965000629425,51.27836386033249 42.72121200629425,51.27836386033249 39.49465000629425,48.15336386033249 L39.43996200629425,48.15336386033249 L31.83840000629425,61.33305186033249 M45.17043100629425,22.63383286033249 C42.30715000629425,22.63383286033249 39.96340000629425,24.97758286033249 39.96340000629425,27.84086386033249 C39.96340000629425,30.70805186033249 42.30715000629425,33.05180186033249 45.17043100629425,33.05180186033249 C48.03371200629425,33.05180186033249 50.37746200629425,30.70805186033249 50.37746200629425,27.84086386033249 C50.37746200629425,24.97758286033249 48.03371200629425,22.63383286033249 45.17043100629425,22.63383286033249 zM45.17043100629425,22.63383286033249 " id="svg_1"/>
</g></g></svg>