<?xml version="1.0" encoding="UTF-8"?>
<svg xmlns="http://www.w3.org/2000/svg" xmlns:xlink="http://www.w3.org/1999/xlink" width="199pt" height="78pt" viewBox="0 0 199 78" version="1.1">
<g id="surface1">
<path style=" stroke:none;fill-rule:nonzero;fill:rgb(0%,0%,0%);fill-opacity:1;" d="M 29.902344 68.171875 C 26.753906 65.691406 23.394531 63.308594 21.097656 59.957031 C 16.265625 54.050781 12.542969 47.207031 10 40.019531 C 8.464844 35.34375 7.9375 30.332031 5.953125 25.835938 C 3.882812 22.574219 6.308594 19.003906 9.878906 17.964844 C 11.46875 17.660156 14.261719 16.160156 10.890625 17.234375 C 7.867188 19.453125 7.574219 15.214844 10.675781 14.945312 C 12.789062 14.664062 13.570312 12.929688 12.847656 11.367188 C 10.574219 9.882812 18.355469 8.253906 14.441406 6.039062 C 10.363281 1.628906 20.144531 0.78125 17.730469 5.789062 C 17.152344 9.636719 24.566406 5.082031 22.847656 9.527344 C 24.59375 11.660156 29.394531 10.011719 29.273438 13.007812 C 31.820312 13.183594 32.695312 15.328125 35.085938 15.492188 C 37.5625 16.613281 42.054688 17.496094 42.898438 20.292969 C 40.441406 22.246094 34.75 16.269531 34.476562 21.664062 C 35.21875 29.636719 35.027344 37.847656 37.941406 45.4375 C 39.316406 50.035156 42.65625 53.652344 45.671875 57.234375 C 48.554688 60.742188 52.464844 63.207031 56.445312 65.285156 C 59.941406 66.9375 63.707031 68.03125 67.515625 68.71875 C 69.058594 67.535156 71.785156 63.136719 74.195312 64.992188 C 74.308594 67.074219 69.414062 69.347656 73.964844 69.117188 C 76.636719 68.3125 78.492188 71.1875 80.691406 68.59375 C 82.722656 71 89.121094 67.054688 87.679688 71.972656 C 85.726562 73.234375 82.882812 72.472656 80.929688 74.207031 C 77.707031 72.59375 75.140625 75.648438 71.574219 75.261719 C 67.613281 75.972656 63.582031 76.261719 59.566406 76.265625 C 52.980469 75.746094 46.25 75.527344 39.984375 73.226562 C 36.453125 72.199219 33.007812 70.1875 29.902344 68.171875 Z M 35.46875 70.585938 C 38.914062 72.078125 42.285156 73.652344 46.066406 74.128906 C 52.058594 74.964844 58.25 76.25 64.265625 75.078125 C 61.542969 73.84375 58.730469 75.554688 56.015625 74.195312 C 52.761719 74.898438 49.273438 74.015625 45.964844 73.585938 C 42.203125 71.90625 38.144531 70.753906 34.621094 68.574219 C 30.222656 66.964844 36.898438 70.640625 38.085938 70.9375 C 40.839844 72.5 35.0625 70.132812 34.246094 69.484375 C 31.941406 68.191406 31.648438 68.460938 34.019531 69.773438 C 34.496094 70.054688 34.96875 70.347656 35.46875 70.585938 Z M 28.90625 65.941406 C 32.25 67.183594 28.894531 63.589844 27.363281 63.796875 C 26.683594 62.617188 24.769531 61.875 26.121094 61.242188 C 23.691406 62.085938 23.578125 58.03125 22.4375 58.609375 C 19.867188 57.796875 21.4375 54.921875 18.378906 53.152344 C 18.097656 51.292969 15.335938 49.675781 14.457031 46.867188 C 14.070312 45.429688 11.339844 41.300781 13.015625 45.144531 C 14.445312 48.84375 16.957031 52.011719 19.046875 55.175781 C 20.667969 58.1875 22.585938 61.339844 25.542969 63.21875 C 26.539062 64.175781 27.5 65.640625 28.90625 65.941406 Z M 19.28125 55.359375 C 19.398438 54.851562 19.894531 56.453125 19.28125 55.359375 Z M 32.910156 67.429688 C 33.648438 67.097656 31.84375 67.011719 32.910156 67.429688 Z M 34.722656 68.089844 C 34.535156 67.175781 33.894531 68.601562 34.722656 68.089844 Z M 36.992188 69.039062 C 38.074219 68.007812 35.328125 68.390625 36.992188 69.039062 Z M 40.882812 71.210938 C 41.539062 70.238281 38.78125 70.84375 40.882812 71.210938 Z M 33.410156 65.996094 C 35.089844 64.90625 31.242188 65.980469 33.410156 65.996094 Z M 35.113281 66.84375 C 35.066406 66.269531 34.507812 67.101562 35.113281 66.84375 Z M 43.625 72.167969 C 44.996094 73.03125 51.617188 74.0625 47.46875 72.519531 C 46.777344 72.667969 39.78125 70.539062 43.625 72.167969 Z M 30.113281 61.625 C 29.980469 61.046875 27.988281 60.988281 30.113281 61.625 Z M 34.078125 63.9375 C 35.109375 63.21875 31.9375 63.382812 34.078125 63.9375 Z M 37.410156 65.984375 C 38.890625 65.425781 35.007812 65.425781 37.410156 65.984375 Z M 28.5 59.867188 C 30.105469 61.101562 34.976562 60.023438 30.960938 59.128906 C 29.132812 58.152344 25.011719 57.484375 27.820312 59.71875 Z M 39.667969 66.691406 C 40.335938 65.550781 36.863281 66.039062 39.667969 66.691406 Z M 36.273438 63.992188 C 40.199219 65.105469 32.972656 61.503906 35.304688 63.582031 L 35.824219 63.816406 Z M 43.074219 67.929688 C 46.792969 67.964844 39.71875 67.414062 43.074219 67.929688 Z M 27.070312 57.710938 C 26.925781 57.019531 26.152344 57.769531 27.070312 57.710938 Z M 49.367188 71.464844 C 49.464844 70.210938 48.152344 72.394531 49.367188 71.464844 Z M 33.417969 61.605469 C 33.191406 60.945312 32.253906 61.578125 33.417969 61.605469 Z M 27.421875 57.277344 C 29.558594 57.148438 24.5 56.335938 27.421875 57.277344 Z M 20.324219 52.679688 C 20.058594 51.65625 18 50.835938 20.324219 52.679688 Z M 38.960938 64.527344 C 38.570312 64.082031 38.777344 64.625 38.960938 64.527344 Z M 50.5625 71.65625 C 50.523438 70.976562 49.929688 71.914062 50.5625 71.65625 Z M 37.933594 63.464844 C 38.144531 62.585938 36.113281 63.199219 37.933594 63.464844 Z M 29.292969 57.980469 C 30.878906 57.808594 26.75 56.902344 29.292969 57.980469 Z M 43.910156 67.078125 C 46.386719 66.097656 41.5 66.597656 43.910156 67.078125 Z M 36.308594 61.90625 C 39.160156 62.277344 32.914062 59.964844 35.679688 61.699219 Z M 46.21875 68.011719 C 48.882812 66.417969 48.003906 71.746094 50.738281 68.460938 C 53.433594 66.492188 48.410156 70.898438 51.730469 68.8125 C 54.132812 67.203125 57.683594 69.578125 59.925781 70.351562 C 61.535156 70.273438 63.105469 71.746094 64.757812 70.851562 C 67.9375 69.992188 58.535156 69.578125 61 68.054688 C 58.089844 68.902344 55.9375 67.042969 54.503906 65.175781 C 51.238281 64.417969 47.464844 62.746094 45.835938 59.851562 C 45.171875 58.765625 46.792969 60.003906 45.261719 58.230469 C 43.292969 56.476562 42.3125 54.484375 40.992188 52.355469 C 39.414062 51.511719 39.230469 49.03125 39.070312 52.273438 C 39.082031 50.226562 37.164062 48.847656 36.695312 49.421875 C 36.6875 47.449219 38.75 48.4375 37.304688 46.980469 C 36.996094 44.9375 35.972656 42.808594 35.664062 40.503906 C 35.1875 39.390625 35.597656 37.011719 34.035156 39.527344 C 33.46875 42.1875 33.847656 36.261719 34.730469 38.214844 C 35.894531 36.21875 34.316406 36.453125 34.25 36.730469 C 35.007812 35.050781 34.730469 32.664062 34.054688 33.574219 C 34.457031 31.789062 34.691406 27.007812 33.449219 27.855469 C 34.203125 25.992188 34.875 19.320312 31.609375 21.863281 C 30.289062 21.882812 27.996094 22.347656 26.914062 22.886719 C 30.308594 24.761719 26.570312 23.5625 25.191406 23.265625 C 25.011719 25 23.640625 24.25 21.929688 24.265625 C 24.664062 24.605469 20.601562 27.066406 19.03125 26.109375 C 16.996094 27.082031 20.789062 29.515625 19.074219 30.269531 C 19.285156 31.402344 15.953125 29.859375 16.214844 32.476562 C 14.242188 31.644531 15.945312 35.582031 16.933594 34.25 C 20.292969 35.164062 19.300781 37.238281 19.382812 39.210938 C 18.835938 40.363281 16.679688 36.511719 18.90625 36.6875 C 17.148438 33.835938 16.964844 35.65625 15.507812 36.984375 C 15.167969 37.078125 19.222656 38.871094 16.679688 39.753906 C 18.917969 40.101562 18.980469 42.0625 19.4375 43.308594 C 20.785156 44.710938 20.507812 41.753906 22.121094 43.445312 C 21.101562 41.941406 16.71875 39.207031 20.246094 40.082031 C 20.226562 38.570312 19.609375 37.347656 20.691406 37.378906 C 21.757812 35.4375 19.570312 42.164062 21.980469 39.699219 C 22.648438 39.40625 22.8125 37.753906 24.015625 39.855469 C 25.757812 41.570312 24.644531 42.816406 22.183594 41.242188 C 22.625 42.738281 25.472656 43.273438 24.9375 45.609375 C 25.507812 47.664062 26.300781 46.90625 26.992188 46.789062 C 27.535156 48.785156 27.84375 47.316406 27.871094 46.367188 C 30.355469 46.902344 29.773438 48.371094 30.550781 49.402344 C 32.265625 50.175781 28.097656 44.152344 31.039062 47.589844 C 34.136719 50.386719 32.203125 51.554688 29.425781 51.109375 C 31.183594 50.964844 31.75 53.488281 33.945312 53.398438 C 35.953125 54.355469 37.308594 58.023438 33.855469 56.496094 C 32.65625 55.414062 28.414062 54.078125 31.878906 56.136719 C 35.078125 57.621094 37.617188 58.511719 40.707031 60.375 C 42.914062 61.953125 43.867188 63.761719 44.707031 64.121094 C 42.847656 65.007812 39.109375 63.410156 41.886719 62.921875 C 40.15625 62.605469 38.207031 61.730469 39.867188 63.890625 C 41.277344 65.066406 44.863281 64.945312 45.503906 65.078125 C 44.960938 66.28125 44.023438 66.375 45.527344 66.46875 C 43.851562 67.363281 46.0625 67.5 46.21875 68.011719 Z M 42.792969 58.320312 C 41.773438 57.25 41.507812 55.25 42.613281 56.992188 C 43.175781 57.21875 44.421875 60.261719 42.792969 58.320312 Z M 53.953125 65.421875 C 54.589844 65.378906 53.972656 65.902344 53.953125 65.421875 Z M 41.183594 55.699219 C 41.144531 54.085938 41.550781 56.945312 41.183594 55.699219 Z M 40.074219 54.207031 C 38.792969 51.722656 41.691406 54.910156 40.074219 54.207031 Z M 26.632812 44.914062 C 27.386719 44.710938 27.003906 46.203125 26.632812 44.914062 Z M 37.328125 50.71875 C 37.792969 48.980469 37.875 52.179688 37.328125 50.71875 Z M 29.773438 45.457031 C 29.238281 44.496094 30.886719 46.359375 29.773438 45.457031 Z M 36.257812 47.539062 C 35.042969 44.8125 37.117188 46.050781 36.527344 47.988281 Z M 25.074219 40.066406 C 24.53125 39.171875 23.632812 36.546875 23.921875 35.746094 C 24.183594 37.050781 26.691406 41.363281 25.152344 37.53125 C 23.449219 34.320312 27.183594 38.574219 27.570312 39.375 C 27.75 40.171875 26.519531 39.15625 27.351562 41.027344 C 25.832031 38.898438 26.457031 42.199219 25.074219 40.066406 Z M 21.617188 37.679688 C 21.757812 35.601562 22.40625 39.109375 21.617188 37.679688 Z M 23.171875 38.21875 C 23.914062 36.648438 24.429688 40.40625 23.171875 38.21875 Z M 19.429688 35.320312 C 18.144531 34.039062 17.210938 32.859375 19.492188 34.523438 C 20.367188 34.558594 17.539062 31.839844 19.703125 33.660156 C 21.976562 34.074219 20.824219 37.394531 19.429688 35.320312 Z M 21.394531 35.269531 C 22.144531 34.527344 21.792969 36 21.394531 35.269531 Z M 22.605469 35.65625 C 21.472656 33.527344 23.980469 36.546875 22.605469 35.65625 Z M 20.203125 33.355469 C 16.460938 30.019531 24.902344 35.097656 20.8125 33.972656 Z M 30.921875 39.59375 C 29.300781 38.621094 30.492188 32.75 31.042969 36.765625 C 32.617188 36.253906 30.957031 38.839844 32.132812 38.816406 C 31.945312 40.445312 31.421875 41.03125 30.921875 39.59375 Z M 34.886719 41.941406 C 35.042969 40.171875 35.21875 43.152344 34.886719 41.941406 Z M 34.195312 41.261719 C 34.375 40.503906 34.214844 42.152344 34.195312 41.261719 Z M 20.933594 32.257812 C 18.53125 28.9375 27.921875 35.621094 22.472656 33.101562 C 21.90625 32.953125 21.222656 32.898438 20.933594 32.257812 Z M 28.570312 36.316406 C 28.34375 33.515625 29.078125 36.777344 28.570312 36.316406 Z M 34.367188 40.039062 C 34.816406 38.445312 34.402344 41.09375 34.367188 40.039062 Z M 21.304688 30.992188 C 22.730469 30.6875 27.222656 33.503906 23.097656 31.796875 C 22.640625 31.289062 21.664062 31.519531 21.304688 30.992188 Z M 33.570312 37.117188 C 33.722656 34.257812 34.421875 35.40625 33.574219 37.527344 Z M 22.367188 29.996094 C 22.949219 29.140625 20.820312 26.128906 22.671875 28.917969 C 23.472656 29.554688 24.988281 29.984375 23.652344 30.25 C 25.757812 32.113281 23.136719 30.753906 22.367188 29.996094 Z M 32.964844 36.222656 C 33.367188 32.964844 33.320312 38.132812 32.964844 36.222656 Z M 21.152344 26.988281 C 21.59375 26.796875 21.386719 27.582031 21.152344 26.988281 Z M 23.914062 28.636719 C 24.625 27.140625 25.226562 30.304688 23.914062 28.636719 Z M 31.710938 32.980469 C 31.703125 32.40625 31.859375 33.816406 31.710938 32.980469 Z M 31.261719 31.980469 C 30.179688 29.304688 32.265625 33.394531 31.261719 31.980469 Z M 30.597656 30.226562 C 30.414062 29.121094 31.214844 31.613281 30.597656 30.226562 Z M 31.675781 28.464844 C 30.933594 27.152344 32.617188 22.6875 32.804688 25.457031 C 32.019531 27.617188 32.578125 28.824219 33.125 25.929688 C 34.132812 23.648438 32.90625 30.421875 31.675781 28.464844 Z M 32.789062 21.824219 C 33.113281 21.425781 32.859375 22.300781 32.789062 21.824219 Z M 30.933594 58.453125 C 30.492188 58.070312 30.988281 58.699219 30.933594 58.453125 Z M 34.757812 60.390625 C 36.882812 60.9375 36.871094 60.058594 34.949219 59.800781 C 33.917969 58.835938 30.652344 57.8125 33.574219 59.679688 C 33.765625 60.171875 34.378906 60.160156 34.757812 60.390625 Z M 27.207031 55.367188 C 28.378906 56.242188 31.617188 57.847656 28.875 55.699219 C 29.800781 54.625 27.105469 54.050781 28 53.332031 C 25.722656 51.9375 26.203125 52.0625 27.796875 52.105469 C 25.0625 50.878906 28.191406 50.972656 28.042969 50.34375 C 26.992188 50.136719 22.808594 48.484375 25.269531 50.480469 C 22.769531 49.203125 24.671875 50.957031 23.917969 50.769531 C 21.359375 50.074219 26.195312 52.722656 23.511719 52.066406 C 24.976562 53.230469 27.460938 55.046875 24.132812 53.296875 C 23.691406 53.929688 26.511719 54.886719 27.207031 55.367188 Z M 31.203125 57.667969 C 36.066406 59.238281 28.820312 55.75 31.203125 57.667969 Z M 51.671875 70.089844 C 51.738281 69.125 51.007812 70.914062 51.671875 70.089844 Z M 53.777344 70.976562 C 54.898438 69.886719 53.824219 72.710938 55.636719 70.710938 C 55.65625 69.277344 55.582031 68.433594 53.554688 70.171875 C 52.996094 70.484375 52.746094 71.804688 53.777344 70.976562 Z M 20.382812 49.96875 C 20.035156 48.613281 17.964844 48.617188 20.382812 49.96875 Z M 22.628906 51.441406 C 21.792969 50.058594 19.652344 50.1875 22.628906 51.441406 Z M 35.40625 59.164062 C 36.65625 60.273438 41.140625 59.976562 36.921875 59.300781 C 36.300781 58.375 32.960938 58.597656 35.40625 59.164062 Z M 52.976562 70.03125 C 54.898438 68.417969 51.117188 70.753906 52.976562 70.03125 Z M 56.972656 72.78125 C 56.984375 72.261719 56.144531 73.007812 56.972656 72.78125 Z M 56.976562 72.054688 C 59.105469 69.800781 54.917969 72.191406 56.976562 72.054688 Z M 14.855469 45.335938 C 13.042969 42.742188 13.730469 41.578125 11.980469 39.464844 C 11.648438 37.847656 8.980469 34.175781 10.601562 38.066406 C 12.082031 40.339844 12.523438 43.859375 14.855469 45.335938 Z M 56.3125 71.339844 C 60.222656 68.804688 54.703125 70.234375 56.3125 71.339844 Z M 59.296875 72.511719 C 61.257812 70.824219 58.058594 72.160156 59.296875 72.511719 Z M 19.714844 47.105469 C 20.277344 46.269531 18.265625 46.996094 19.714844 47.105469 Z M 58.671875 71.710938 C 60.570312 70.484375 58.238281 70.671875 58.328125 71.824219 Z M 32.925781 55.457031 C 32.863281 54.628906 31.925781 55.527344 32.925781 55.457031 Z M 34.519531 56.371094 C 34.011719 55.347656 33.742188 56.535156 34.519531 56.371094 Z M 61.71875 72.539062 C 64.148438 70.78125 60.246094 72.203125 61.207031 72.871094 Z M 60.789062 72.089844 C 62.765625 70.425781 58.695312 72.824219 60.789062 72.089844 Z M 65.542969 75.261719 C 66.871094 74.367188 63.925781 74.972656 65.542969 75.261719 Z M 20.933594 46.503906 C 22.714844 46.902344 28.054688 50.898438 24.90625 46.777344 C 23.292969 46.300781 24.257812 42.351562 22.613281 43.050781 C 23.71875 44.898438 23.523438 45.683594 21.203125 44.519531 C 18.289062 43.09375 19.566406 45.226562 20.136719 45.8125 C 19.359375 45.988281 21.164062 46.488281 20.933594 46.503906 Z M 12.816406 40.082031 C 13.136719 38.757812 9.878906 32.808594 11.277344 37.097656 C 11.785156 37.996094 11.730469 39.699219 12.816406 40.082031 Z M 27.714844 49.28125 C 26.796875 48.511719 27.671875 49.171875 27.714844 49.28125 Z M 29.976562 49.808594 C 29.976562 48.410156 27.476562 49.238281 29.976562 49.808594 Z M 49.554688 62.171875 C 49.183594 61.214844 48.082031 62.152344 49.554688 62.171875 Z M 50.496094 62.859375 C 50.359375 62.324219 49.953125 62.964844 50.496094 62.859375 Z M 58.257812 67.757812 C 59.003906 67.207031 57.328125 67.6875 58.257812 67.757812 Z M 16.871094 41.117188 C 19.007812 40.289062 14.582031 40.527344 16.871094 41.117188 Z M 47.832031 60.65625 C 47.808594 59.269531 46.472656 61 47.832031 60.65625 Z M 16.027344 39.148438 C 17.398438 38.683594 14.757812 38.84375 16.027344 39.148438 Z M 20.007812 41.078125 C 19.984375 40.625 19.585938 41.25 20.007812 41.078125 Z M 68.558594 70.902344 C 70.324219 70.542969 74.34375 71.800781 74.992188 70.433594 C 72.851562 70.382812 67.582031 68.921875 67.332031 70.78125 L 67.800781 70.855469 Z M 21.273438 41.398438 C 21.304688 39.996094 20.179688 41.347656 21.273438 41.398438 Z M 10.808594 34.125 C 10.332031 31.453125 9 33.722656 10.808594 34.125 Z M 13.304688 34.753906 C 13.332031 33.898438 11.019531 33.984375 13.304688 34.753906 Z M 14.730469 35.457031 C 14.316406 35.121094 14.40625 35.878906 14.730469 35.457031 Z M 23.703125 41.222656 C 24.125 40.835938 22.703125 40.933594 23.703125 41.222656 Z M 13.777344 33.875 C 13.539062 31.855469 10.886719 33.570312 13.777344 33.875 Z M 8.664062 30.546875 C 8.589844 29.617188 8.164062 30.898438 8.664062 30.546875 Z M 9.421875 29.972656 C 9.300781 28.867188 8.769531 30.113281 9.421875 29.972656 Z M 13.628906 32.488281 C 15.40625 31.789062 10.390625 31.039062 13.265625 32.355469 Z M 69.910156 67.308594 C 71.046875 66.265625 68.464844 66.984375 69.910156 67.308594 Z M 76.710938 70.839844 C 77.164062 69.488281 75.5625 71.019531 76.710938 70.839844 Z M 14.058594 30.28125 C 14.246094 28.972656 12.648438 30.539062 14.058594 30.28125 Z M 8.074219 26.265625 C 7.753906 24.417969 7.796875 21.179688 10.871094 22.273438 C 6.769531 23.089844 13.710938 27.382812 12.835938 23.992188 C 14.5625 24.078125 16.210938 22.972656 15.304688 24.648438 C 18.707031 24.273438 21.0625 21.320312 24.347656 21.734375 C 26.90625 21.394531 29.703125 21.140625 32.457031 20.105469 C 34.722656 19.945312 36.90625 17.5 35.664062 16.050781 C 32.574219 15.789062 29.335938 16.175781 25.921875 16.855469 C 22.136719 17.644531 18.699219 19.140625 14.878906 19.785156 C 11.15625 20.285156 15.625 21.164062 14.558594 21.359375 C 12.617188 22.035156 16.878906 22.492188 14.308594 23.203125 C 12.722656 22.902344 11.070312 22.355469 11.75 20.679688 C 8.183594 21.144531 5.046875 22.628906 7.867188 26.261719 Z M 16.667969 21.878906 C 17.503906 18.792969 21.148438 24.417969 18.039062 22.289062 C 17.667969 22.011719 17.058594 21.785156 16.667969 21.878906 Z M 16.832031 20.382812 C 18.039062 19.484375 17.472656 20.890625 16.832031 20.382812 Z M 18.363281 20.410156 C 18.472656 18.988281 21.871094 21.160156 18.925781 20.917969 Z M 20.460938 19.5625 C 21.226562 18.667969 20.679688 20.359375 20.460938 19.5625 Z M 20.996094 19.203125 C 22.269531 17.671875 28.214844 18.226562 23.863281 19.054688 C 22.699219 18.175781 21.804688 19.574219 20.996094 19.203125 Z M 28.753906 18.007812 C 28.558594 13.816406 32.605469 19.496094 28.753906 18.007812 Z M 30.953125 17.996094 C 31.757812 15.882812 34.078125 17.148438 31.328125 17.570312 C 31.386719 17.796875 31.246094 18.660156 30.953125 17.996094 Z M 13.191406 29.195312 C 15.59375 27.71875 10.636719 27.914062 13.191406 29.195312 Z M 14.96875 29.691406 C 15.8125 28.792969 13.136719 29.324219 14.96875 29.691406 Z M 9.730469 25.964844 C 11.105469 24.910156 8.105469 25.566406 9.730469 25.964844 Z M 80.722656 70.453125 C 80.761719 69.226562 79.671875 71.007812 80.722656 70.453125 Z M 73.507812 65.523438 C 73.714844 64.109375 72.582031 65.644531 73.507812 65.523438 Z M 82.707031 70.929688 C 84.628906 70.9375 88.527344 70.332031 84.347656 70.332031 C 83.691406 70.4375 80.527344 70.414062 82.707031 70.929688 Z M 16.53125 28.824219 C 18.085938 28.71875 18.964844 27.105469 16.230469 27.199219 C 11.996094 26.761719 19.96875 28.652344 15.6875 28.109375 C 15.113281 28.492188 16.5 28.929688 16.53125 28.824219 Z M 17.902344 29.519531 C 17.738281 28.519531 17.421875 30.050781 17.902344 29.519531 Z M 19.523438 25.179688 C 20.199219 24.34375 18.589844 24.957031 19.523438 25.179688 Z M 14.355469 16.523438 C 17.128906 15.578125 20.921875 14.515625 22.234375 16.992188 C 20.898438 15.382812 21.695312 13.800781 22.953125 16.152344 C 24.734375 18.527344 25.625 15.070312 24.46875 14.273438 C 25.789062 15.914062 27.289062 16.691406 25.351562 14.375 C 27.457031 11.839844 21.136719 14.707031 19.699219 14.679688 C 19.007812 14.988281 12.566406 16.324219 14.355469 16.523438 Z M 15.980469 13.40625 C 17.5625 12.210938 21.453125 14.117188 18.957031 12.21875 C 18.714844 12 13.492188 13.660156 15.980469 13.40625 Z M 21.75 13.644531 C 23.601562 13.691406 20.949219 11.152344 23.15625 12.304688 C 22.792969 11.117188 20.589844 10.894531 19.507812 10.421875 C 18.898438 11.507812 20.75 13.660156 21.75 13.644531 Z M 16.992188 8.398438 C 17.632812 7.53125 15.871094 8.839844 16.992188 8.398438 Z M 19.351562 8.964844 C 22.335938 8.570312 18.589844 7.679688 18.75 8.933594 Z M 14.949219 5.515625 C 12.847656 2.765625 18.898438 5.976562 16.765625 3.101562 C 14.96875 1.667969 13.242188 4.710938 14.949219 5.515625 Z M 41.914062 20.0625 C 42.875 18.351562 37.933594 17.757812 41.261719 19.457031 C 41.570312 19.558594 41.5 20.179688 41.914062 20.0625 Z M 41.914062 20.0625 "/>
<path style=" stroke:none;fill-rule:nonzero;fill:rgb(0%,0%,0%);fill-opacity:1;" d="M 87.398438 8.261719 C 87.054688 9.621094 86.84375 11.90625 86.761719 15.117188 C 86.761719 15.746094 86.476562 16.0625 85.910156 16.0625 C 85.34375 16.0625 84.945312 15.785156 84.722656 15.238281 C 84.113281 13.753906 83.539062 12.71875 82.988281 12.128906 C 82.339844 11.441406 81.480469 11.023438 80.402344 10.882812 C 79.25 10.699219 76.367188 10.605469 71.765625 10.605469 C 70.710938 10.605469 70.023438 10.71875 69.695312 10.941406 C 69.496094 11.085938 69.394531 11.390625 69.394531 11.855469 L 69.394531 25.660156 C 69.394531 26.125 69.6875 26.347656 70.273438 26.328125 C 72.078125 26.308594 74.695312 26.1875 78.121094 25.964844 C 78.792969 25.882812 79.242188 25.664062 79.476562 25.308594 C 79.710938 24.953125 79.9375 24.035156 80.160156 22.550781 C 80.304688 21.738281 80.78125 21.421875 81.589844 21.605469 C 82.28125 21.75 82.574219 22.0625 82.472656 22.550781 C 81.90625 25.3125 81.722656 28.910156 81.925781 33.335938 C 81.945312 33.863281 81.609375 34.148438 80.921875 34.191406 C 80.355469 34.25 80 33.945312 79.855469 33.277344 C 79.328125 30.738281 78.351562 29.378906 76.921875 29.207031 C 75.492188 29.035156 73.164062 28.949219 69.941406 28.949219 C 69.574219 28.949219 69.394531 29.082031 69.394531 29.34375 L 69.394531 43.054688 C 69.394531 44.070312 69.769531 44.761719 70.519531 45.128906 C 71.105469 45.433594 72.375 45.707031 74.320312 45.949219 C 75.3125 46.050781 75.75 46.488281 75.628906 47.261719 C 75.507812 47.929688 74.613281 48.195312 72.953125 48.054688 C 68.144531 47.667969 64.179688 47.6875 61.058594 48.113281 C 60.1875 48.234375 59.75 47.878906 59.75 47.046875 C 59.75 46.519531 60.1875 46.214844 61.058594 46.132812 C 63.046875 45.910156 64.039062 44.164062 64.039062 40.894531 L 64.039062 14.8125 C 64.039062 13.472656 63.800781 12.441406 63.324219 11.71875 C 62.847656 10.996094 61.960938 10.34375 60.664062 9.753906 C 59.851562 9.386719 59.546875 8.890625 59.75 8.261719 C 59.851562 7.875 60.015625 7.660156 60.238281 7.621094 C 60.441406 7.558594 60.976562 7.601562 61.847656 7.742188 C 63.128906 7.945312 66.136719 8.046875 70.882812 8.046875 C 76.480469 8.046875 81.316406 7.925781 85.394531 7.683594 C 86.75 7.601562 87.429688 7.710938 87.429688 8.015625 C 87.429688 8.097656 87.421875 8.179688 87.398438 8.261719 Z M 87.398438 8.261719 "/>
<path style=" stroke:none;fill-rule:nonzero;fill:rgb(0%,0%,0%);fill-opacity:1;" d="M 107.171875 46.988281 C 107.171875 47.800781 106.714844 48.15625 105.804688 48.054688 C 103.003906 47.789062 99.535156 47.828125 95.398438 48.175781 C 94.570312 48.257812 94.058594 48.234375 93.863281 48.113281 C 93.671875 47.992188 93.574219 47.65625 93.574219 47.109375 C 93.574219 46.621094 94.128906 46.210938 95.234375 45.875 C 96.339844 45.539062 96.890625 44.539062 96.890625 42.875 L 96.890625 15.300781 C 96.890625 13.652344 96.652344 12.445312 96.175781 11.671875 C 95.699219 10.902344 94.863281 10.300781 93.667969 9.875 C 93.039062 9.652344 92.722656 9.335938 92.722656 8.929688 C 92.722656 8.320312 93.179688 7.863281 94.09375 7.558594 C 95.472656 7.113281 96.902344 6.421875 98.382812 5.488281 C 99.597656 4.757812 100.367188 4.390625 100.691406 4.390625 C 101.441406 4.390625 101.820312 4.910156 101.820312 5.945312 C 101.820312 5.863281 101.777344 6.878906 101.695312 8.992188 C 101.636719 11.003906 101.617188 12.984375 101.636719 14.933594 L 101.757812 42.140625 C 101.757812 43.382812 102.0625 44.28125 102.671875 44.839844 C 103.277344 45.398438 104.324219 45.769531 105.804688 45.949219 C 106.714844 46.050781 107.171875 46.398438 107.171875 46.988281 Z M 107.171875 46.988281 "/>
<path style=" stroke:none;fill-rule:nonzero;fill:rgb(0%,0%,0%);fill-opacity:1;" d="M 134.914062 44.945312 C 134.914062 45.371094 134.136719 46.015625 132.585938 46.878906 C 131.035156 47.742188 129.792969 48.175781 128.859375 48.175781 C 128.070312 48.175781 127.371094 47.789062 126.761719 47.015625 C 126.152344 46.246094 125.726562 45.859375 125.484375 45.859375 C 125.300781 45.859375 124.335938 46.277344 122.59375 47.109375 C 120.851562 47.941406 119.097656 48.359375 117.332031 48.359375 C 115.667969 48.359375 114.28125 47.871094 113.164062 46.894531 C 111.949219 45.820312 111.339844 44.355469 111.339844 42.507812 C 111.339844 38.992188 115.355469 36.476562 123.382812 34.953125 C 124.761719 34.6875 125.464844 34.128906 125.484375 33.277344 L 125.542969 31.324219 C 125.664062 27.996094 124.195312 26.328125 121.132812 26.328125 C 120.261719 26.328125 119.433594 27.109375 118.65625 28.675781 C 117.875 30.238281 116.753906 31.082031 115.292969 31.203125 C 113.628906 31.367188 112.800781 30.664062 112.800781 29.101562 C 112.800781 28.125 114.035156 26.988281 116.511719 25.6875 C 119.105469 24.328125 121.601562 23.648438 123.992188 23.648438 C 128.109375 23.648438 130.148438 25.609375 130.105469 29.527344 L 129.984375 42.082031 C 129.964844 43.402344 130.523438 44.0625 131.660156 44.0625 C 131.882812 44.0625 132.308594 44.011719 132.9375 43.910156 C 133.5625 43.808594 133.929688 43.757812 134.03125 43.757812 C 134.617188 43.757812 134.914062 44.152344 134.914062 44.945312 Z M 125.542969 38 C 125.566406 37.492188 125.449219 37.15625 125.195312 36.992188 C 124.941406 36.832031 124.539062 36.800781 123.992188 36.902344 C 119.105469 37.773438 116.664062 39.371094 116.664062 41.683594 C 116.664062 44.019531 117.929688 45.1875 120.464844 45.1875 C 121.476562 45.1875 122.523438 44.996094 123.597656 44.609375 C 124.855469 44.164062 125.484375 43.625 125.484375 42.996094 Z M 125.542969 38 "/>
<path style=" stroke:none;fill-rule:nonzero;fill:rgb(0%,0%,0%);fill-opacity:1;" d="M 157.605469 41.320312 C 157.605469 43.472656 156.777344 45.183594 155.125 46.453125 C 153.472656 47.722656 151.21875 48.359375 148.359375 48.359375 C 146.453125 48.359375 144.546875 48.15625 142.640625 47.75 C 140.996094 47.382812 140.042969 47.046875 139.78125 46.742188 C 139.617188 46.457031 139.535156 45.066406 139.535156 42.570312 C 139.535156 41.492188 139.78125 40.933594 140.265625 40.894531 C 140.753906 40.832031 141.167969 41.097656 141.511719 41.683594 C 143.035156 44.347656 145.488281 45.675781 148.875 45.675781 C 151.734375 45.675781 153.164062 44.679688 153.164062 42.691406 C 153.164062 41.816406 152.839844 41.085938 152.191406 40.496094 C 151.480469 39.828125 150.101562 39.042969 148.054688 38.152344 C 145.09375 36.832031 143.117188 35.671875 142.121094 34.675781 C 141.046875 33.621094 140.511719 32.199219 140.511719 30.410156 C 140.511719 28.21875 141.351562 26.511719 143.035156 25.292969 C 144.597656 24.113281 146.683594 23.527344 149.300781 23.527344 C 150.941406 23.527344 152.445312 23.65625 153.800781 23.921875 C 155.261719 24.1875 156.023438 24.511719 156.082031 24.898438 C 156.246094 26.035156 156.582031 27.679688 157.085938 29.832031 C 157.148438 30.097656 156.863281 30.308594 156.234375 30.472656 C 155.566406 30.613281 155.121094 30.503906 154.898438 30.136719 C 153.296875 27.515625 151.269531 26.207031 148.8125 26.207031 C 146.035156 26.207031 144.648438 27.101562 144.648438 28.886719 C 144.648438 29.882812 145.023438 30.675781 145.773438 31.265625 C 146.441406 31.773438 148.011719 32.566406 150.488281 33.640625 C 153.082031 34.757812 154.847656 35.765625 155.78125 36.65625 C 156.996094 37.816406 157.605469 39.371094 157.605469 41.320312 Z M 157.605469 41.320312 "/>
<path style=" stroke:none;fill-rule:nonzero;fill:rgb(0%,0%,0%);fill-opacity:1;" d="M 192.890625 46.804688 C 192.890625 47.515625 192.414062 47.890625 191.460938 47.929688 C 190.039062 47.953125 188.183594 48.054688 185.894531 48.234375 C 184.757812 48.460938 183.945312 48.316406 183.460938 47.808594 C 180.253906 44.355469 177.539062 40.742188 175.308594 36.960938 C 175.125 36.636719 174.890625 36.476562 174.609375 36.476562 C 174.261719 36.476562 173.664062 36.78125 172.8125 37.390625 C 171.859375 37.917969 171.382812 38.667969 171.382812 39.644531 C 171.382812 40.335938 171.402344 41.328125 171.445312 42.628906 C 171.484375 43.929688 171.808594 44.78125 172.417969 45.1875 C 172.84375 45.472656 173.828125 45.695312 175.367188 45.859375 C 176.320312 45.980469 176.796875 46.335938 176.796875 46.925781 C 176.796875 47.394531 176.722656 47.683594 176.570312 47.792969 C 176.417969 47.90625 176.015625 47.929688 175.367188 47.871094 C 173.339844 47.6875 169.914062 47.789062 165.085938 48.175781 C 163.871094 48.277344 163.210938 48.125 163.109375 47.71875 C 163.070312 47.574219 163.050781 47.371094 163.050781 47.109375 C 163.050781 46.480469 163.667969 46 164.90625 45.675781 C 166.019531 45.390625 166.578125 44.082031 166.578125 41.746094 L 166.578125 15.117188 C 166.578125 13.449219 166.414062 12.292969 166.089844 11.644531 C 165.644531 10.808594 164.710938 10.160156 163.292969 9.691406 C 162.625 9.46875 162.289062 9.15625 162.289062 8.75 C 162.289062 8.160156 162.765625 7.703125 163.71875 7.378906 C 165.238281 6.871094 166.6875 6.167969 168.070312 5.273438 C 169.183594 4.542969 169.875 4.179688 170.136719 4.179688 C 170.96875 4.179688 171.382812 4.707031 171.382812 5.761719 C 171.382812 5.621094 171.375 6.625 171.351562 8.777344 C 171.332031 10.261719 171.324219 12.253906 171.324219 14.75 L 171.382812 33.824219 C 171.382812 34.351562 171.527344 34.617188 171.808594 34.617188 C 172.113281 34.617188 172.582031 34.351562 173.210938 33.824219 C 174.890625 32.503906 176.960938 30.777344 179.414062 28.644531 C 179.902344 28.136719 180.144531 27.730469 180.144531 27.425781 C 180.144531 26.878906 179.324219 26.492188 177.679688 26.269531 C 176.96875 26.1875 176.636719 25.789062 176.675781 25.078125 C 176.738281 24.367188 177.09375 24.0625 177.742188 24.164062 C 179.203125 24.367188 181.332031 24.480469 184.128906 24.5 C 186.074219 24.519531 188.011719 24.53125 189.9375 24.53125 C 190.566406 24.550781 190.882812 24.925781 190.882812 25.660156 C 190.882812 26.347656 190.386719 26.726562 189.390625 26.785156 C 187.828125 26.847656 186.359375 27.203125 184.980469 27.851562 C 183.054688 28.726562 180.996094 30.257812 178.804688 32.453125 C 178.644531 32.574219 178.5625 32.726562 178.5625 32.910156 C 178.5625 33.195312 178.90625 33.875 179.597656 34.953125 C 182.132812 38.8125 184.523438 41.726562 186.773438 43.695312 C 188.214844 44.933594 189.5625 45.554688 190.820312 45.554688 C 191.753906 45.554688 192.332031 45.621094 192.554688 45.753906 C 192.777344 45.882812 192.890625 46.234375 192.890625 46.804688 Z M 192.890625 46.804688 "/>
<path style=" stroke:none;fill-rule:nonzero;fill:rgb(0%,0%,0%);fill-opacity:1;" d="M 111.335938 57.421875 C 111.335938 57.492188 111.199219 57.566406 110.929688 57.640625 C 110.75 57.691406 110.601562 57.851562 110.476562 58.128906 C 109.769531 59.707031 109.132812 60.980469 108.574219 61.949219 C 108.5625 61.972656 108.53125 61.984375 108.484375 61.980469 C 108.441406 61.976562 108.414062 61.960938 108.398438 61.9375 C 108.300781 61.796875 108.058594 61.300781 107.667969 60.449219 C 107.308594 59.667969 107.117188 59.277344 107.089844 59.277344 C 107.046875 59.277344 106.835938 59.65625 106.457031 60.410156 C 106.027344 61.25 105.773438 61.730469 105.695312 61.847656 C 105.683594 61.875 105.652344 61.886719 105.609375 61.882812 C 105.566406 61.882812 105.535156 61.867188 105.511719 61.835938 C 105.222656 61.386719 104.558594 60.152344 103.523438 58.140625 C 103.40625 57.902344 103.273438 57.753906 103.125 57.691406 C 102.875 57.578125 102.75 57.5 102.75 57.445312 C 102.75 57.292969 102.832031 57.222656 103.003906 57.238281 C 103.761719 57.316406 104.429688 57.300781 105 57.191406 C 105.132812 57.167969 105.195312 57.210938 105.195312 57.324219 C 105.195312 57.476562 105.109375 57.574219 104.929688 57.617188 C 104.699219 57.671875 104.582031 57.761719 104.582031 57.878906 C 104.582031 57.953125 104.609375 58.066406 104.664062 58.210938 C 104.804688 58.578125 105.019531 59.042969 105.304688 59.609375 C 105.585938 60.175781 105.753906 60.457031 105.800781 60.457031 C 105.832031 60.457031 106 60.160156 106.304688 59.574219 C 106.605469 58.984375 106.757812 58.660156 106.757812 58.597656 C 106.757812 58.441406 106.707031 58.277344 106.605469 58.097656 C 106.480469 57.835938 106.339844 57.683594 106.179688 57.628906 C 105.917969 57.539062 105.789062 57.449219 105.789062 57.363281 C 105.789062 57.207031 105.875 57.140625 106.054688 57.167969 C 106.660156 57.25 107.304688 57.234375 107.984375 57.121094 C 108.113281 57.097656 108.175781 57.136719 108.175781 57.238281 C 108.175781 57.390625 108.082031 57.480469 107.886719 57.519531 C 107.660156 57.5625 107.542969 57.679688 107.542969 57.867188 C 107.542969 57.957031 107.570312 58.066406 107.621094 58.1875 C 108.230469 59.675781 108.578125 60.421875 108.675781 60.421875 C 108.710938 60.421875 108.867188 60.128906 109.148438 59.550781 C 109.449219 58.929688 109.65625 58.429688 109.773438 58.050781 C 109.78125 58.03125 109.785156 58.007812 109.785156 57.984375 C 109.785156 57.816406 109.65625 57.683594 109.390625 57.589844 C 109.183594 57.523438 109.082031 57.445312 109.082031 57.363281 C 109.082031 57.226562 109.148438 57.171875 109.277344 57.203125 C 109.457031 57.242188 109.773438 57.273438 110.234375 57.292969 C 110.667969 57.308594 110.957031 57.304688 111.09375 57.285156 C 111.253906 57.265625 111.335938 57.3125 111.335938 57.421875 Z M 111.335938 57.421875 "/>
<path style=" stroke:none;fill-rule:nonzero;fill:rgb(0%,0%,0%);fill-opacity:1;" d="M 116.578125 60.78125 C 116.578125 60.953125 116.347656 61.164062 115.890625 61.417969 C 115.371094 61.695312 114.835938 61.835938 114.289062 61.835938 C 113.691406 61.835938 113.191406 61.640625 112.785156 61.25 C 112.351562 60.835938 112.132812 60.28125 112.132812 59.589844 C 112.132812 58.808594 112.378906 58.179688 112.863281 57.707031 C 113.316406 57.265625 113.871094 57.042969 114.53125 57.042969 C 114.921875 57.042969 115.285156 57.167969 115.625 57.417969 C 115.925781 57.636719 116.128906 57.890625 116.226562 58.175781 C 116.261719 58.273438 116.316406 58.328125 116.386719 58.339844 C 116.488281 58.359375 116.539062 58.429688 116.539062 58.546875 C 116.539062 58.710938 116.347656 58.847656 115.960938 58.964844 L 113.234375 59.773438 C 113.410156 60.714844 113.894531 61.183594 114.679688 61.183594 C 115.132812 61.183594 115.648438 61.019531 116.226562 60.6875 C 116.3125 60.636719 116.398438 60.609375 116.480469 60.609375 C 116.542969 60.609375 116.578125 60.667969 116.578125 60.78125 Z M 115.175781 58.40625 C 115.175781 58.1875 115.085938 58 114.910156 57.835938 C 114.734375 57.671875 114.519531 57.589844 114.265625 57.589844 C 113.539062 57.589844 113.175781 58.113281 113.175781 59.160156 L 113.175781 59.300781 L 114.785156 58.816406 C 115.042969 58.738281 115.175781 58.605469 115.175781 58.40625 Z M 115.175781 58.40625 "/>
<path style=" stroke:none;fill-rule:nonzero;fill:rgb(0%,0%,0%);fill-opacity:1;" d="M 122.554688 59.117188 C 122.554688 59.898438 122.285156 60.554688 121.738281 61.085938 C 121.21875 61.59375 120.601562 61.847656 119.882812 61.847656 C 119.476562 61.847656 119.050781 61.78125 118.609375 61.648438 C 118.183594 61.515625 117.96875 61.398438 117.964844 61.292969 C 117.960938 61.199219 117.964844 60.882812 117.972656 60.335938 C 117.984375 59.671875 117.988281 59.183594 117.988281 58.878906 C 117.988281 58.421875 117.984375 57.757812 117.976562 56.886719 C 117.96875 56.015625 117.964844 55.4375 117.964844 55.152344 C 117.964844 54.871094 117.921875 54.675781 117.835938 54.566406 C 117.757812 54.472656 117.585938 54.398438 117.320312 54.34375 C 117.21875 54.308594 117.167969 54.242188 117.167969 54.148438 C 117.167969 54.0625 117.246094 53.996094 117.398438 53.9375 C 117.621094 53.859375 117.894531 53.726562 118.21875 53.542969 C 118.480469 53.394531 118.640625 53.324219 118.707031 53.324219 C 118.828125 53.324219 118.890625 53.425781 118.890625 53.625 C 118.890625 53.640625 118.882812 53.847656 118.871094 54.242188 C 118.863281 54.613281 118.863281 54.988281 118.867188 55.375 L 118.878906 57.421875 C 118.878906 57.617188 118.945312 57.671875 119.078125 57.589844 C 119.550781 57.316406 120.042969 57.179688 120.558594 57.179688 C 121.148438 57.179688 121.628906 57.359375 122 57.714844 C 122.371094 58.074219 122.554688 58.539062 122.554688 59.117188 Z M 121.609375 59.644531 C 121.609375 59.105469 121.460938 58.660156 121.160156 58.3125 C 120.875 57.984375 120.53125 57.820312 120.125 57.820312 C 119.84375 57.820312 119.570312 57.894531 119.296875 58.039062 C 119.023438 58.183594 118.890625 58.339844 118.890625 58.5 L 118.890625 60.089844 C 118.890625 60.851562 119.308594 61.234375 120.148438 61.234375 C 120.585938 61.234375 120.9375 61.089844 121.207031 60.808594 C 121.476562 60.527344 121.609375 60.136719 121.609375 59.644531 Z M 121.609375 59.644531 "/>
<path style=" stroke:none;fill-rule:nonzero;fill:rgb(0%,0%,0%);fill-opacity:1;" d="M 132.125 61.195312 C 132.140625 61.234375 132.148438 61.257812 132.148438 61.273438 C 132.148438 61.355469 131.949219 61.492188 131.546875 61.683594 C 131.082031 61.898438 130.808594 62.007812 130.722656 62.007812 C 130.652344 62.007812 130.570312 61.890625 130.480469 61.648438 C 130.386719 61.410156 130.320312 61.292969 130.285156 61.292969 C 130.289062 61.292969 130.066406 61.394531 129.613281 61.601562 C 129.164062 61.808594 128.820312 61.914062 128.589844 61.914062 C 128.070312 61.914062 127.617188 61.726562 127.234375 61.351562 C 126.773438 60.90625 126.542969 60.277344 126.542969 59.472656 C 126.542969 58.796875 126.816406 58.214844 127.359375 57.726562 C 127.839844 57.292969 128.332031 57.078125 128.832031 57.078125 C 129.1875 57.078125 129.609375 57.125 130.101562 57.214844 C 130.257812 57.242188 130.332031 57.199219 130.332031 57.078125 L 130.332031 55.054688 C 130.332031 54.824219 130.277344 54.664062 130.167969 54.566406 C 130.097656 54.503906 129.929688 54.429688 129.664062 54.34375 C 129.539062 54.292969 129.476562 54.21875 129.476562 54.109375 C 129.476562 54.011719 129.5625 53.9375 129.730469 53.890625 C 129.964844 53.820312 130.242188 53.703125 130.5625 53.535156 C 130.832031 53.394531 130.996094 53.324219 131.0625 53.324219 C 131.207031 53.324219 131.28125 53.425781 131.28125 53.625 C 131.28125 53.621094 131.273438 53.816406 131.261719 54.214844 C 131.25 54.613281 131.246094 54.996094 131.246094 55.375 L 131.246094 60.757812 C 131.246094 60.984375 131.34375 61.097656 131.546875 61.097656 C 131.621094 61.097656 131.722656 61.085938 131.847656 61.0625 C 131.984375 61.035156 132.078125 61.082031 132.125 61.195312 Z M 130.296875 60.609375 L 130.296875 58.488281 C 130.296875 58.316406 130.144531 58.136719 129.835938 57.949219 C 129.507812 57.753906 129.15625 57.652344 128.773438 57.652344 C 127.949219 57.652344 127.535156 58.164062 127.535156 59.183594 C 127.535156 59.726562 127.699219 60.195312 128.027344 60.582031 C 128.355469 60.96875 128.738281 61.160156 129.179688 61.160156 C 129.382812 61.160156 129.617188 61.09375 129.890625 60.960938 C 130.164062 60.824219 130.296875 60.710938 130.296875 60.609375 Z M 130.296875 60.609375 "/>
<path style=" stroke:none;fill-rule:nonzero;fill:rgb(0%,0%,0%);fill-opacity:1;" d="M 137.253906 60.78125 C 137.253906 60.953125 137.023438 61.164062 136.566406 61.417969 C 136.046875 61.695312 135.511719 61.835938 134.964844 61.835938 C 134.371094 61.835938 133.867188 61.640625 133.460938 61.25 C 133.027344 60.835938 132.8125 60.28125 132.8125 59.589844 C 132.8125 58.808594 133.054688 58.179688 133.539062 57.707031 C 133.992188 57.265625 134.546875 57.042969 135.207031 57.042969 C 135.597656 57.042969 135.960938 57.167969 136.300781 57.417969 C 136.605469 57.636719 136.804688 57.890625 136.90625 58.175781 C 136.941406 58.273438 136.992188 58.328125 137.0625 58.339844 C 137.167969 58.359375 137.21875 58.429688 137.21875 58.546875 C 137.21875 58.710938 137.023438 58.847656 136.636719 58.964844 L 133.910156 59.773438 C 134.089844 60.714844 134.570312 61.183594 135.355469 61.183594 C 135.808594 61.183594 136.324219 61.019531 136.90625 60.6875 C 136.992188 60.636719 137.078125 60.609375 137.160156 60.609375 C 137.222656 60.609375 137.253906 60.667969 137.253906 60.78125 Z M 135.851562 58.40625 C 135.851562 58.1875 135.765625 58 135.589844 57.835938 C 135.414062 57.671875 135.199219 57.589844 134.941406 57.589844 C 134.214844 57.589844 133.851562 58.113281 133.851562 59.160156 L 133.851562 59.300781 L 135.460938 58.816406 C 135.722656 58.738281 135.851562 58.605469 135.851562 58.40625 Z M 135.851562 58.40625 "/>
<path style=" stroke:none;fill-rule:nonzero;fill:rgb(0%,0%,0%);fill-opacity:1;" d="M 143.742188 57.410156 C 143.742188 57.484375 143.617188 57.5625 143.371094 57.640625 C 143.207031 57.691406 143.070312 57.851562 142.957031 58.128906 C 142.761719 58.59375 142.425781 59.277344 141.945312 60.179688 C 141.539062 60.941406 141.222656 61.496094 141.003906 61.847656 C 140.992188 61.875 140.964844 61.886719 140.925781 61.882812 C 140.886719 61.878906 140.859375 61.863281 140.839844 61.835938 C 140.003906 60.632812 139.285156 59.398438 138.691406 58.140625 C 138.566406 57.871094 138.441406 57.722656 138.316406 57.691406 C 138.089844 57.597656 137.976562 57.519531 137.976562 57.445312 C 137.976562 57.289062 138.050781 57.21875 138.207031 57.238281 C 138.445312 57.269531 138.804688 57.277344 139.277344 57.261719 C 139.734375 57.25 140.054688 57.226562 140.242188 57.191406 C 140.355469 57.167969 140.410156 57.210938 140.410156 57.324219 C 140.410156 57.460938 140.332031 57.550781 140.167969 57.589844 C 139.863281 57.671875 139.707031 57.777344 139.707031 57.910156 C 139.707031 57.96875 139.726562 58.054688 139.765625 58.164062 C 139.902344 58.496094 140.140625 58.972656 140.488281 59.601562 C 140.835938 60.226562 141.03125 60.539062 141.082031 60.539062 C 141.117188 60.539062 141.285156 60.238281 141.582031 59.640625 C 141.898438 59.003906 142.125 58.488281 142.261719 58.097656 C 142.28125 58.054688 142.292969 58.011719 142.292969 57.96875 C 142.292969 57.8125 142.199219 57.6875 142.007812 57.589844 C 141.824219 57.515625 141.730469 57.441406 141.730469 57.375 C 141.730469 57.238281 141.792969 57.179688 141.914062 57.203125 C 142.070312 57.230469 142.351562 57.253906 142.75 57.273438 C 143.148438 57.292969 143.40625 57.296875 143.523438 57.285156 C 143.667969 57.257812 143.742188 57.300781 143.742188 57.410156 Z M 143.742188 57.410156 "/>
<path style=" stroke:none;fill-rule:nonzero;fill:rgb(0%,0%,0%);fill-opacity:1;" d="M 148.988281 60.78125 C 148.988281 60.953125 148.757812 61.164062 148.300781 61.417969 C 147.78125 61.695312 147.246094 61.835938 146.699219 61.835938 C 146.105469 61.835938 145.601562 61.640625 145.195312 61.25 C 144.761719 60.835938 144.546875 60.28125 144.546875 59.589844 C 144.546875 58.808594 144.789062 58.179688 145.273438 57.707031 C 145.726562 57.265625 146.285156 57.042969 146.941406 57.042969 C 147.332031 57.042969 147.695312 57.167969 148.035156 57.417969 C 148.339844 57.636719 148.539062 57.890625 148.640625 58.175781 C 148.675781 58.273438 148.726562 58.328125 148.800781 58.339844 C 148.902344 58.359375 148.953125 58.429688 148.953125 58.546875 C 148.953125 58.710938 148.757812 58.847656 148.375 58.964844 L 145.644531 59.773438 C 145.824219 60.714844 146.304688 61.183594 147.089844 61.183594 C 147.542969 61.183594 148.058594 61.019531 148.640625 60.6875 C 148.726562 60.636719 148.8125 60.609375 148.894531 60.609375 C 148.957031 60.609375 148.988281 60.667969 148.988281 60.78125 Z M 147.585938 58.40625 C 147.585938 58.1875 147.5 58 147.324219 57.835938 C 147.148438 57.671875 146.933594 57.589844 146.675781 57.589844 C 145.949219 57.589844 145.585938 58.113281 145.585938 59.160156 L 145.585938 59.300781 L 147.195312 58.816406 C 147.457031 58.738281 147.585938 58.605469 147.585938 58.40625 Z M 147.585938 58.40625 "/>
<path style=" stroke:none;fill-rule:nonzero;fill:rgb(0%,0%,0%);fill-opacity:1;" d="M 152.644531 61.605469 C 152.644531 61.765625 152.554688 61.832031 152.378906 61.8125 C 151.832031 61.761719 151.160156 61.769531 150.355469 61.835938 C 150.191406 61.851562 150.09375 61.847656 150.054688 61.824219 C 150.019531 61.800781 150 61.734375 150 61.628906 C 150 61.535156 150.105469 61.453125 150.320312 61.390625 C 150.535156 61.324219 150.644531 61.128906 150.644531 60.804688 L 150.644531 55.445312 C 150.644531 55.125 150.597656 54.890625 150.503906 54.738281 C 150.414062 54.589844 150.25 54.472656 150.015625 54.390625 C 149.894531 54.347656 149.832031 54.285156 149.835938 54.207031 C 149.832031 54.085938 149.921875 54 150.101562 53.9375 C 150.367188 53.851562 150.644531 53.71875 150.933594 53.535156 C 151.171875 53.394531 151.320312 53.324219 151.382812 53.324219 C 151.53125 53.324219 151.601562 53.425781 151.601562 53.625 C 151.601562 53.609375 151.59375 53.808594 151.578125 54.21875 C 151.566406 54.609375 151.5625 54.992188 151.566406 55.375 L 151.589844 60.664062 C 151.589844 60.90625 151.648438 61.078125 151.769531 61.1875 C 151.886719 61.296875 152.089844 61.367188 152.378906 61.402344 C 152.554688 61.425781 152.644531 61.492188 152.644531 61.605469 Z M 152.644531 61.605469 "/>
<path style=" stroke:none;fill-rule:nonzero;fill:rgb(0%,0%,0%);fill-opacity:1;" d="M 158.375 59.390625 C 158.375 60.078125 158.121094 60.660156 157.613281 61.132812 C 157.101562 61.609375 156.472656 61.847656 155.71875 61.847656 C 154.964844 61.847656 154.371094 61.640625 153.933594 61.21875 C 153.511719 60.808594 153.300781 60.265625 153.300781 59.589844 C 153.300781 58.890625 153.566406 58.304688 154.097656 57.824219 C 154.613281 57.363281 155.230469 57.132812 155.949219 57.132812 C 156.71875 57.132812 157.316406 57.339844 157.746094 57.753906 C 158.164062 58.15625 158.375 58.703125 158.375 59.390625 Z M 157.332031 59.75 C 157.332031 59.132812 157.183594 58.628906 156.882812 58.242188 C 156.59375 57.867188 156.222656 57.679688 155.773438 57.679688 C 155.355469 57.679688 155.011719 57.824219 154.75 58.117188 C 154.484375 58.414062 154.351562 58.773438 154.351562 59.195312 C 154.351562 59.875 154.507812 60.402344 154.8125 60.78125 C 155.097656 61.128906 155.46875 61.304688 155.925781 61.304688 C 156.359375 61.304688 156.703125 61.160156 156.957031 60.871094 C 157.207031 60.582031 157.332031 60.210938 157.332031 59.75 Z M 157.332031 59.75 "/>
<path style=" stroke:none;fill-rule:nonzero;fill:rgb(0%,0%,0%);fill-opacity:1;" d="M 164.554688 59.230469 C 164.554688 59.96875 164.308594 60.59375 163.8125 61.109375 C 163.316406 61.625 162.742188 61.882812 162.082031 61.882812 C 161.683594 61.882812 161.300781 61.8125 160.929688 61.671875 C 160.890625 61.65625 160.871094 61.75 160.871094 61.960938 L 160.871094 63.746094 C 160.871094 64.03125 161.105469 64.21875 161.574219 64.300781 C 161.792969 64.339844 161.929688 64.378906 161.984375 64.410156 C 162.042969 64.445312 162.070312 64.5 162.070312 64.578125 C 162.070312 64.714844 161.984375 64.773438 161.804688 64.761719 C 160.976562 64.707031 160.25 64.726562 159.621094 64.824219 C 159.492188 64.84375 159.410156 64.84375 159.378906 64.824219 C 159.347656 64.804688 159.332031 64.75 159.332031 64.664062 C 159.332031 64.59375 159.445312 64.515625 159.667969 64.417969 C 159.863281 64.339844 159.960938 64.152344 159.960938 63.851562 L 159.960938 58.625 C 159.960938 58.203125 159.84375 57.9375 159.609375 57.832031 C 159.335938 57.710938 159.195312 57.609375 159.195312 57.53125 C 159.195312 57.441406 159.277344 57.378906 159.4375 57.335938 C 159.648438 57.28125 159.863281 57.191406 160.082031 57.0625 C 160.269531 56.953125 160.382812 56.902344 160.421875 56.902344 C 160.539062 56.902344 160.636719 57.011719 160.710938 57.226562 C 160.820312 57.542969 160.894531 57.703125 160.929688 57.703125 C 160.9375 57.703125 161.105469 57.609375 161.4375 57.421875 C 161.800781 57.222656 162.15625 57.121094 162.503906 57.121094 C 163.066406 57.121094 163.53125 57.28125 163.898438 57.601562 C 164.335938 57.976562 164.554688 58.519531 164.554688 59.230469 Z M 163.550781 59.703125 C 163.550781 59.058594 163.390625 58.558594 163.070312 58.199219 C 162.8125 57.898438 162.503906 57.75 162.152344 57.75 C 161.882812 57.75 161.621094 57.84375 161.375 58.035156 C 161.046875 58.277344 160.882812 58.621094 160.882812 59.058594 L 160.882812 60.734375 C 160.882812 60.839844 161.03125 60.953125 161.332031 61.074219 C 161.65625 61.203125 162.007812 61.269531 162.382812 61.269531 C 163.160156 61.269531 163.550781 60.746094 163.550781 59.703125 Z M 163.550781 59.703125 "/>
<path style=" stroke:none;fill-rule:nonzero;fill:rgb(0%,0%,0%);fill-opacity:1;" d="M 175.242188 61.617188 C 175.242188 61.746094 175.183594 61.808594 175.058594 61.800781 C 174.253906 61.742188 173.507812 61.742188 172.8125 61.800781 C 172.660156 61.8125 172.582031 61.742188 172.582031 61.59375 C 172.582031 61.476562 172.6875 61.414062 172.894531 61.402344 C 173.160156 61.386719 173.292969 61.171875 173.292969 60.757812 L 173.292969 59.183594 C 173.292969 58.296875 172.933594 57.855469 172.214844 57.855469 C 171.835938 57.855469 171.488281 57.925781 171.171875 58.0625 C 170.886719 58.183594 170.738281 58.308594 170.734375 58.429688 L 170.710938 60.78125 C 170.710938 61.027344 170.742188 61.1875 170.800781 61.269531 C 170.84375 61.324219 170.941406 61.363281 171.089844 61.386719 C 171.4375 61.445312 171.613281 61.519531 171.613281 61.605469 C 171.613281 61.679688 171.601562 61.730469 171.582031 61.757812 C 171.558594 61.800781 171.488281 61.816406 171.367188 61.8125 C 170.917969 61.796875 170.265625 61.804688 169.40625 61.835938 C 169.28125 61.839844 169.203125 61.832031 169.167969 61.808594 C 169.132812 61.785156 169.117188 61.726562 169.117188 61.640625 C 169.117188 61.539062 169.226562 61.476562 169.453125 61.453125 C 169.695312 61.425781 169.820312 61.199219 169.820312 60.78125 L 169.820312 59.171875 C 169.820312 58.734375 169.722656 58.402344 169.523438 58.164062 C 169.351562 57.949219 169.128906 57.84375 168.859375 57.84375 C 168.46875 57.84375 168.113281 57.921875 167.796875 58.082031 C 167.480469 58.242188 167.324219 58.414062 167.324219 58.597656 L 167.324219 60.757812 C 167.324219 61.003906 167.386719 61.171875 167.511719 61.269531 C 167.628906 61.355469 167.832031 61.40625 168.132812 61.429688 C 168.296875 61.4375 168.375 61.492188 168.375 61.59375 C 168.375 61.707031 168.3125 61.765625 168.179688 61.765625 C 167.195312 61.765625 166.480469 61.792969 166.039062 61.847656 C 165.890625 61.867188 165.792969 61.867188 165.75 61.847656 C 165.714844 61.828125 165.695312 61.78125 165.695312 61.707031 C 165.695312 61.609375 165.84375 61.523438 166.132812 61.453125 C 166.3125 61.402344 166.402344 61.171875 166.402344 60.757812 L 166.402344 58.941406 C 166.402344 58.476562 166.277344 58.210938 166.027344 58.140625 C 165.820312 58.082031 165.691406 58.039062 165.648438 58.007812 C 165.601562 57.980469 165.578125 57.9375 165.578125 57.875 C 165.578125 57.800781 165.785156 57.652344 166.195312 57.421875 C 166.628906 57.179688 166.894531 57.054688 166.992188 57.054688 C 167.074219 57.054688 167.144531 57.175781 167.203125 57.414062 C 167.257812 57.652344 167.304688 57.773438 167.335938 57.773438 C 167.378906 57.773438 167.5 57.710938 167.695312 57.589844 C 167.941406 57.433594 168.160156 57.320312 168.359375 57.246094 C 168.683594 57.117188 169.015625 57.054688 169.359375 57.054688 C 169.632812 57.054688 169.875 57.113281 170.078125 57.234375 C 170.222656 57.3125 170.351562 57.421875 170.464844 57.558594 C 170.558594 57.679688 170.605469 57.738281 170.605469 57.738281 C 170.605469 57.738281 170.707031 57.679688 170.914062 57.558594 C 171.152344 57.421875 171.386719 57.3125 171.617188 57.234375 C 171.953125 57.113281 172.277344 57.054688 172.59375 57.054688 C 173.671875 57.054688 174.214844 57.648438 174.214844 58.839844 L 174.214844 60.757812 C 174.214844 60.984375 174.265625 61.144531 174.375 61.238281 C 174.46875 61.316406 174.652344 61.382812 174.929688 61.441406 C 175.136719 61.480469 175.242188 61.539062 175.242188 61.617188 Z M 175.242188 61.617188 "/>
<path style=" stroke:none;fill-rule:nonzero;fill:rgb(0%,0%,0%);fill-opacity:1;" d="M 180.242188 60.78125 C 180.242188 60.953125 180.011719 61.164062 179.554688 61.417969 C 179.035156 61.695312 178.5 61.835938 177.953125 61.835938 C 177.355469 61.835938 176.855469 61.640625 176.449219 61.25 C 176.015625 60.835938 175.800781 60.28125 175.800781 59.589844 C 175.800781 58.808594 176.042969 58.179688 176.527344 57.707031 C 176.980469 57.265625 177.535156 57.042969 178.195312 57.042969 C 178.585938 57.042969 178.949219 57.167969 179.289062 57.417969 C 179.59375 57.636719 179.792969 57.890625 179.890625 58.175781 C 179.925781 58.273438 179.980469 58.328125 180.050781 58.339844 C 180.152344 58.359375 180.207031 58.429688 180.207031 58.546875 C 180.207031 58.710938 180.011719 58.847656 179.625 58.964844 L 176.898438 59.773438 C 177.078125 60.714844 177.558594 61.183594 178.34375 61.183594 C 178.796875 61.183594 179.3125 61.019531 179.890625 60.6875 C 179.980469 60.636719 180.0625 60.609375 180.144531 60.609375 C 180.210938 60.609375 180.242188 60.667969 180.242188 60.78125 Z M 178.839844 58.40625 C 178.839844 58.1875 178.75 58 178.574219 57.835938 C 178.398438 57.671875 178.183594 57.589844 177.929688 57.589844 C 177.203125 57.589844 176.839844 58.113281 176.839844 59.160156 L 176.839844 59.300781 L 178.449219 58.816406 C 178.707031 58.738281 178.839844 58.605469 178.839844 58.40625 Z M 178.839844 58.40625 "/>
<path style=" stroke:none;fill-rule:nonzero;fill:rgb(0%,0%,0%);fill-opacity:1;" d="M 187.339844 61.671875 C 187.339844 61.792969 187.25 61.847656 187.070312 61.835938 C 186.222656 61.792969 185.582031 61.785156 185.144531 61.8125 C 184.917969 61.828125 184.796875 61.800781 184.777344 61.730469 C 184.769531 61.707031 184.765625 61.671875 184.765625 61.628906 C 184.765625 61.550781 184.878906 61.480469 185.109375 61.417969 C 185.316406 61.355469 185.421875 61.152344 185.421875 60.804688 L 185.421875 59.230469 C 185.421875 58.324219 185.03125 57.875 184.246094 57.875 C 183.894531 57.875 183.570312 57.957031 183.269531 58.121094 C 182.984375 58.285156 182.84375 58.453125 182.84375 58.625 L 182.84375 60.792969 C 182.84375 61.164062 183.085938 61.371094 183.570312 61.417969 C 183.757812 61.433594 183.847656 61.492188 183.847656 61.59375 C 183.847656 61.691406 183.824219 61.75 183.773438 61.773438 C 183.75 61.78125 183.679688 61.78125 183.570312 61.777344 C 182.953125 61.753906 182.3125 61.785156 181.65625 61.871094 C 181.511719 61.890625 181.421875 61.898438 181.386719 61.890625 C 181.308594 61.875 181.269531 61.8125 181.269531 61.707031 C 181.269531 61.613281 181.382812 61.53125 181.605469 61.464844 C 181.816406 61.398438 181.921875 61.136719 181.921875 60.675781 L 181.921875 58.878906 C 181.921875 58.578125 181.882812 58.382812 181.800781 58.300781 C 181.746094 58.242188 181.5625 58.15625 181.253906 58.050781 C 181.171875 58.023438 181.132812 57.96875 181.132812 57.886719 C 181.132812 57.804688 181.214844 57.738281 181.375 57.679688 C 181.597656 57.59375 181.839844 57.460938 182.105469 57.28125 C 182.324219 57.128906 182.464844 57.054688 182.53125 57.054688 C 182.636719 57.054688 182.707031 57.175781 182.742188 57.421875 C 182.777344 57.664062 182.828125 57.785156 182.890625 57.785156 C 182.859375 57.785156 183.058594 57.667969 183.492188 57.4375 C 183.925781 57.207031 184.355469 57.089844 184.777344 57.089844 C 185.796875 57.089844 186.3125 57.671875 186.320312 58.839844 L 186.332031 60.746094 C 186.332031 60.992188 186.394531 61.167969 186.523438 61.273438 C 186.617188 61.351562 186.800781 61.421875 187.070312 61.476562 C 187.25 61.511719 187.339844 61.574219 187.339844 61.671875 Z M 187.339844 61.671875 "/>
<path style=" stroke:none;fill-rule:nonzero;fill:rgb(0%,0%,0%);fill-opacity:1;" d="M 191.136719 61.21875 C 191.136719 61.410156 190.960938 61.570312 190.613281 61.707031 C 190.308594 61.824219 189.996094 61.882812 189.679688 61.882812 C 188.824219 61.882812 188.398438 61.429688 188.398438 60.515625 L 188.398438 58.371094 C 188.398438 58.097656 188.375 57.929688 188.332031 57.871094 C 188.289062 57.808594 188.144531 57.75 187.898438 57.691406 C 187.835938 57.671875 187.804688 57.613281 187.804688 57.507812 C 187.804688 57.390625 187.828125 57.324219 187.875 57.296875 C 188.300781 57.089844 188.671875 56.714844 188.988281 56.171875 C 189.03125 56.097656 189.117188 56.074219 189.242188 56.101562 C 189.328125 56.128906 189.375 56.179688 189.378906 56.257812 L 189.402344 56.996094 C 189.402344 57.050781 189.414062 57.089844 189.433594 57.113281 C 189.460938 57.152344 189.523438 57.167969 189.621094 57.167969 L 190.941406 57.167969 C 191.015625 57.167969 191.015625 57.261719 190.941406 57.445312 C 190.847656 57.671875 190.714844 57.785156 190.539062 57.785156 L 189.644531 57.785156 C 189.492188 57.785156 189.398438 57.808594 189.359375 57.863281 C 189.332031 57.898438 189.320312 57.992188 189.320312 58.152344 L 189.320312 60.089844 C 189.320312 60.578125 189.363281 60.890625 189.449219 61.019531 C 189.5625 61.183594 189.832031 61.269531 190.25 61.269531 C 190.386719 61.269531 190.554688 61.246094 190.75 61.199219 C 190.949219 61.15625 191.050781 61.132812 191.066406 61.132812 C 191.113281 61.132812 191.136719 61.160156 191.136719 61.21875 Z M 191.136719 61.21875 "/>
<path style=" stroke:none;fill-rule:nonzero;fill:rgb(0%,0%,0%);fill-opacity:1;" d="M 193.820312 61.488281 C 193.820312 62.515625 193.390625 63.285156 192.523438 63.804688 C 192.445312 63.851562 192.390625 63.875 192.355469 63.875 C 192.296875 63.875 192.246094 63.8125 192.199219 63.683594 C 192.183594 63.640625 192.175781 63.605469 192.175781 63.578125 C 192.175781 63.511719 192.289062 63.402344 192.511719 63.246094 C 192.898438 62.976562 193.09375 62.675781 193.09375 62.335938 C 193.09375 62.160156 192.980469 62.003906 192.757812 61.859375 C 192.441406 61.664062 192.28125 61.421875 192.28125 61.132812 C 192.28125 60.9375 192.347656 60.777344 192.476562 60.648438 C 192.609375 60.519531 192.78125 60.457031 193 60.457031 C 193.257812 60.457031 193.460938 60.550781 193.605469 60.742188 C 193.75 60.929688 193.820312 61.179688 193.820312 61.488281 Z M 193.820312 61.488281 "/>
<path style=" stroke:none;fill-rule:nonzero;fill:rgb(0%,0%,0%);fill-opacity:1;" d="M 108.644531 70.308594 C 108.644531 70.996094 108.390625 71.578125 107.882812 72.054688 C 107.375 72.53125 106.742188 72.769531 105.988281 72.769531 C 105.234375 72.769531 104.640625 72.558594 104.203125 72.140625 C 103.78125 71.730469 103.570312 71.1875 103.570312 70.511719 C 103.570312 69.8125 103.835938 69.222656 104.367188 68.746094 C 104.886719 68.285156 105.503906 68.050781 106.21875 68.050781 C 106.988281 68.050781 107.589844 68.261719 108.019531 68.675781 C 108.4375 69.078125 108.644531 69.621094 108.644531 70.308594 Z M 107.605469 70.671875 C 107.605469 70.050781 107.453125 69.546875 107.15625 69.160156 C 106.863281 68.785156 106.492188 68.597656 106.042969 68.597656 C 105.625 68.597656 105.285156 68.746094 105.019531 69.039062 C 104.753906 69.332031 104.621094 69.691406 104.621094 70.113281 C 104.621094 70.792969 104.777344 71.324219 105.085938 71.703125 C 105.367188 72.050781 105.738281 72.222656 106.195312 72.222656 C 106.628906 72.222656 106.972656 72.078125 107.226562 71.792969 C 107.476562 71.503906 107.605469 71.128906 107.605469 70.671875 Z M 107.605469 70.671875 "/>
<path style=" stroke:none;fill-rule:nonzero;fill:rgb(0%,0%,0%);fill-opacity:1;" d="M 115.84375 72.589844 C 115.84375 72.714844 115.753906 72.769531 115.578125 72.757812 C 114.730469 72.714844 114.085938 72.707031 113.648438 72.734375 C 113.425781 72.75 113.300781 72.722656 113.28125 72.648438 C 113.273438 72.625 113.269531 72.59375 113.269531 72.550781 C 113.269531 72.46875 113.382812 72.398438 113.613281 72.335938 C 113.820312 72.277344 113.925781 72.074219 113.925781 71.726562 L 113.925781 70.148438 C 113.925781 69.246094 113.535156 68.792969 112.75 68.792969 C 112.398438 68.792969 112.074219 68.875 111.773438 69.042969 C 111.488281 69.203125 111.347656 69.371094 111.347656 69.546875 L 111.347656 71.714844 C 111.347656 72.085938 111.589844 72.292969 112.074219 72.335938 C 112.261719 72.351562 112.351562 72.410156 112.351562 72.515625 C 112.351562 72.613281 112.328125 72.671875 112.277344 72.691406 C 112.253906 72.699219 112.1875 72.703125 112.074219 72.699219 C 111.457031 72.671875 110.816406 72.707031 110.160156 72.792969 C 110.015625 72.8125 109.929688 72.816406 109.894531 72.808594 C 109.8125 72.792969 109.773438 72.734375 109.773438 72.625 C 109.773438 72.53125 109.886719 72.449219 110.113281 72.382812 C 110.320312 72.320312 110.425781 72.058594 110.425781 71.59375 L 110.425781 69.800781 C 110.425781 69.496094 110.386719 69.304688 110.308594 69.21875 C 110.25 69.160156 110.066406 69.078125 109.757812 68.972656 C 109.679688 68.941406 109.636719 68.886719 109.636719 68.804688 C 109.636719 68.726562 109.71875 68.65625 109.882812 68.597656 C 110.101562 68.515625 110.34375 68.382812 110.609375 68.199219 C 110.828125 68.050781 110.972656 67.976562 111.035156 67.976562 C 111.140625 67.976562 111.210938 68.097656 111.246094 68.339844 C 111.28125 68.582031 111.332031 68.703125 111.394531 68.703125 C 111.363281 68.703125 111.566406 68.589844 112 68.359375 C 112.433594 68.125 112.859375 68.011719 113.28125 68.011719 C 114.304688 68.011719 114.816406 68.59375 114.824219 69.757812 L 114.835938 71.667969 C 114.835938 71.910156 114.902344 72.085938 115.027344 72.195312 C 115.121094 72.273438 115.304688 72.339844 115.578125 72.394531 C 115.753906 72.429688 115.84375 72.496094 115.84375 72.589844 Z M 115.84375 72.589844 "/>
<path style=" stroke:none;fill-rule:nonzero;fill:rgb(0%,0%,0%);fill-opacity:1;" d="M 120.789062 71.703125 C 120.789062 71.871094 120.558594 72.082031 120.101562 72.335938 C 119.582031 72.617188 119.046875 72.757812 118.5 72.757812 C 117.902344 72.757812 117.402344 72.5625 116.996094 72.171875 C 116.5625 71.753906 116.34375 71.203125 116.34375 70.511719 C 116.34375 69.730469 116.589844 69.101562 117.074219 68.628906 C 117.527344 68.183594 118.082031 67.964844 118.742188 67.964844 C 119.132812 67.964844 119.496094 68.089844 119.835938 68.335938 C 120.140625 68.558594 120.339844 68.8125 120.4375 69.09375 C 120.472656 69.195312 120.527344 69.25 120.597656 69.261719 C 120.699219 69.28125 120.753906 69.351562 120.753906 69.46875 C 120.753906 69.628906 120.558594 69.769531 120.171875 69.882812 L 117.445312 70.695312 C 117.625 71.636719 118.105469 72.105469 118.890625 72.105469 C 119.34375 72.105469 119.859375 71.9375 120.4375 71.605469 C 120.523438 71.554688 120.609375 71.53125 120.691406 71.53125 C 120.757812 71.53125 120.789062 71.585938 120.789062 71.703125 Z M 119.386719 69.328125 C 119.386719 69.109375 119.296875 68.917969 119.121094 68.753906 C 118.945312 68.589844 118.730469 68.507812 118.476562 68.507812 C 117.75 68.507812 117.386719 69.03125 117.386719 70.078125 L 117.386719 70.222656 L 118.996094 69.734375 C 119.253906 69.660156 119.386719 69.523438 119.386719 69.328125 Z M 119.386719 69.328125 "/>
<path style=" stroke:none;fill-rule:nonzero;fill:rgb(0%,0%,0%);fill-opacity:1;" d="M 130.257812 72.117188 C 130.273438 72.152344 130.28125 72.179688 130.28125 72.195312 C 130.28125 72.277344 130.078125 72.414062 129.675781 72.601562 C 129.210938 72.820312 128.9375 72.929688 128.855469 72.929688 C 128.785156 72.929688 128.703125 72.808594 128.609375 72.570312 C 128.515625 72.332031 128.453125 72.210938 128.417969 72.210938 C 128.421875 72.210938 128.199219 72.316406 127.746094 72.523438 C 127.292969 72.730469 126.953125 72.832031 126.71875 72.832031 C 126.199219 72.832031 125.746094 72.644531 125.367188 72.269531 C 124.902344 71.824219 124.671875 71.199219 124.671875 70.394531 C 124.671875 69.71875 124.945312 69.136719 125.488281 68.644531 C 125.96875 68.214844 126.460938 68 126.960938 68 C 127.316406 68 127.742188 68.042969 128.234375 68.136719 C 128.386719 68.164062 128.464844 68.117188 128.464844 68 L 128.464844 65.972656 C 128.464844 65.742188 128.410156 65.582031 128.300781 65.488281 C 128.226562 65.425781 128.058594 65.347656 127.796875 65.261719 C 127.671875 65.214844 127.605469 65.136719 127.605469 65.03125 C 127.605469 64.933594 127.691406 64.859375 127.863281 64.8125 C 128.09375 64.742188 128.371094 64.621094 128.695312 64.457031 C 128.964844 64.3125 129.128906 64.242188 129.191406 64.242188 C 129.339844 64.242188 129.410156 64.34375 129.410156 64.546875 C 129.410156 64.542969 129.40625 64.738281 129.394531 65.136719 C 129.382812 65.53125 129.375 65.917969 129.375 66.292969 L 129.375 71.679688 C 129.375 71.902344 129.476562 72.015625 129.675781 72.015625 C 129.753906 72.015625 129.851562 72.003906 129.980469 71.980469 C 130.117188 71.957031 130.210938 72.003906 130.257812 72.117188 Z M 128.429688 71.53125 L 128.429688 69.410156 C 128.429688 69.234375 128.273438 69.054688 127.96875 68.871094 C 127.640625 68.671875 127.285156 68.574219 126.902344 68.574219 C 126.078125 68.574219 125.667969 69.082031 125.667969 70.101562 C 125.667969 70.648438 125.832031 71.113281 126.15625 71.5 C 126.484375 71.886719 126.871094 72.082031 127.3125 72.082031 C 127.511719 72.082031 127.75 72.015625 128.019531 71.878906 C 128.292969 71.746094 128.429688 71.628906 128.429688 71.53125 Z M 128.429688 71.53125 "/>
<path style=" stroke:none;fill-rule:nonzero;fill:rgb(0%,0%,0%);fill-opacity:1;" d="M 134.722656 68.496094 C 134.722656 68.976562 134.585938 69.214844 134.308594 69.214844 C 134.265625 69.214844 134.121094 69.1875 133.875 69.132812 C 133.632812 69.074219 133.453125 69.046875 133.339844 69.046875 C 132.898438 69.046875 132.675781 69.347656 132.675781 69.941406 L 132.675781 71.691406 C 132.675781 71.894531 132.746094 72.042969 132.890625 72.128906 C 132.972656 72.179688 133.179688 72.25 133.511719 72.335938 C 133.6875 72.378906 133.777344 72.445312 133.777344 72.539062 C 133.777344 72.644531 133.761719 72.707031 133.730469 72.730469 C 133.703125 72.75 133.628906 72.757812 133.511719 72.746094 C 132.640625 72.652344 131.957031 72.648438 131.453125 72.734375 C 131.292969 72.761719 131.191406 72.761719 131.148438 72.734375 C 131.113281 72.710938 131.097656 72.640625 131.097656 72.527344 C 131.097656 72.417969 131.207031 72.335938 131.425781 72.269531 C 131.644531 72.207031 131.753906 72.019531 131.753906 71.703125 L 131.753906 69.800781 C 131.753906 69.550781 131.71875 69.382812 131.65625 69.296875 C 131.589844 69.210938 131.410156 69.09375 131.121094 68.949219 L 131.085938 68.929688 C 131.007812 68.890625 130.964844 68.835938 130.964844 68.765625 C 130.964844 68.683594 131.046875 68.617188 131.210938 68.5625 C 131.480469 68.46875 131.730469 68.332031 131.953125 68.160156 C 132.140625 68.011719 132.257812 67.941406 132.308594 67.941406 C 132.449219 67.941406 132.535156 68.0625 132.5625 68.308594 C 132.597656 68.621094 132.640625 68.777344 132.6875 68.777344 C 132.691406 68.777344 132.914062 68.628906 133.351562 68.332031 C 133.636719 68.136719 133.953125 68.039062 134.296875 68.039062 C 134.582031 68.039062 134.722656 68.191406 134.722656 68.496094 Z M 134.722656 68.496094 "/>
<path style=" stroke:none;fill-rule:nonzero;fill:rgb(0%,0%,0%);fill-opacity:1;" d="M 140.582031 70.308594 C 140.582031 70.996094 140.328125 71.578125 139.820312 72.054688 C 139.3125 72.53125 138.679688 72.769531 137.929688 72.769531 C 137.175781 72.769531 136.578125 72.558594 136.140625 72.140625 C 135.71875 71.730469 135.507812 71.1875 135.507812 70.511719 C 135.507812 69.8125 135.773438 69.222656 136.308594 68.746094 C 136.824219 68.285156 137.441406 68.050781 138.160156 68.050781 C 138.925781 68.050781 139.527344 68.261719 139.957031 68.675781 C 140.375 69.078125 140.582031 69.621094 140.582031 70.308594 Z M 139.542969 70.671875 C 139.542969 70.050781 139.394531 69.546875 139.09375 69.160156 C 138.800781 68.785156 138.429688 68.597656 137.980469 68.597656 C 137.5625 68.597656 137.222656 68.746094 136.957031 69.039062 C 136.695312 69.332031 136.5625 69.691406 136.5625 70.113281 C 136.5625 70.792969 136.714844 71.324219 137.023438 71.703125 C 137.308594 72.050781 137.675781 72.222656 138.136719 72.222656 C 138.570312 72.222656 138.910156 72.078125 139.164062 71.792969 C 139.417969 71.503906 139.542969 71.128906 139.542969 70.671875 Z M 139.542969 70.671875 "/>
<path style=" stroke:none;fill-rule:nonzero;fill:rgb(0%,0%,0%);fill-opacity:1;" d="M 146.765625 70.148438 C 146.765625 70.886719 146.515625 71.515625 146.023438 72.03125 C 145.527344 72.546875 144.949219 72.804688 144.292969 72.804688 C 143.894531 72.804688 143.507812 72.734375 143.140625 72.589844 C 143.097656 72.574219 143.078125 72.671875 143.078125 72.882812 L 143.078125 74.664062 C 143.078125 74.953125 143.3125 75.136719 143.785156 75.222656 C 144 75.261719 144.136719 75.296875 144.195312 75.332031 C 144.25 75.363281 144.28125 75.421875 144.28125 75.5 C 144.28125 75.632812 144.191406 75.695312 144.015625 75.683594 C 143.1875 75.628906 142.457031 75.648438 141.832031 75.742188 C 141.703125 75.761719 141.621094 75.761719 141.589844 75.742188 C 141.558594 75.722656 141.542969 75.667969 141.542969 75.582031 C 141.542969 75.515625 141.652344 75.433594 141.878906 75.339844 C 142.070312 75.261719 142.167969 75.070312 142.167969 74.769531 L 142.167969 69.546875 C 142.167969 69.125 142.050781 68.859375 141.820312 68.75 C 141.542969 68.628906 141.40625 68.527344 141.40625 68.449219 C 141.40625 68.363281 141.488281 68.296875 141.648438 68.253906 C 141.855469 68.203125 142.070312 68.113281 142.292969 67.980469 C 142.476562 67.875 142.589844 67.820312 142.628906 67.820312 C 142.75 67.820312 142.84375 67.929688 142.917969 68.148438 C 143.03125 68.464844 143.101562 68.621094 143.140625 68.621094 C 143.148438 68.621094 143.316406 68.527344 143.648438 68.34375 C 144.011719 68.140625 144.363281 68.039062 144.710938 68.039062 C 145.277344 68.039062 145.742188 68.199219 146.109375 68.519531 C 146.546875 68.894531 146.765625 69.4375 146.765625 70.148438 Z M 145.757812 70.625 C 145.757812 69.980469 145.597656 69.480469 145.28125 69.117188 C 145.019531 68.820312 144.714844 68.667969 144.363281 68.667969 C 144.089844 68.667969 143.832031 68.761719 143.582031 68.953125 C 143.253906 69.199219 143.089844 69.539062 143.089844 69.976562 L 143.089844 71.65625 C 143.089844 71.761719 143.242188 71.875 143.539062 71.992188 C 143.863281 72.121094 144.214844 72.1875 144.59375 72.1875 C 145.371094 72.1875 145.757812 71.667969 145.757812 70.625 Z M 145.757812 70.625 "/>
<path style=" stroke:none;fill-rule:nonzero;fill:rgb(0%,0%,0%);fill-opacity:1;" d="M 155.53125 72.128906 C 155.53125 72.210938 155.378906 72.335938 155.078125 72.503906 C 154.777344 72.671875 154.535156 72.757812 154.351562 72.757812 C 154.199219 72.757812 154.0625 72.683594 153.945312 72.53125 C 153.828125 72.382812 153.742188 72.304688 153.695312 72.304688 C 153.660156 72.304688 153.472656 72.386719 153.132812 72.550781 C 152.796875 72.710938 152.453125 72.792969 152.109375 72.792969 C 151.789062 72.792969 151.519531 72.699219 151.300781 72.507812 C 151.0625 72.296875 150.945312 72.015625 150.945312 71.65625 C 150.945312 70.972656 151.726562 70.480469 153.289062 70.183594 C 153.554688 70.132812 153.691406 70.027344 153.695312 69.859375 L 153.707031 69.480469 C 153.730469 68.832031 153.445312 68.507812 152.851562 68.507812 C 152.679688 68.507812 152.519531 68.660156 152.367188 68.964844 C 152.214844 69.269531 152 69.433594 151.714844 69.457031 C 151.390625 69.488281 151.230469 69.351562 151.230469 69.046875 C 151.230469 68.859375 151.46875 68.636719 151.953125 68.382812 C 152.457031 68.121094 152.941406 67.988281 153.40625 67.988281 C 154.207031 67.988281 154.601562 68.367188 154.59375 69.132812 L 154.570312 71.570312 C 154.566406 71.828125 154.675781 71.957031 154.898438 71.957031 C 154.941406 71.957031 155.023438 71.945312 155.144531 71.925781 C 155.265625 71.90625 155.339844 71.898438 155.359375 71.898438 C 155.472656 71.898438 155.53125 71.976562 155.53125 72.128906 Z M 153.707031 70.777344 C 153.710938 70.679688 153.6875 70.613281 153.640625 70.582031 C 153.589844 70.550781 153.511719 70.546875 153.40625 70.566406 C 152.457031 70.734375 151.980469 71.042969 151.980469 71.496094 C 151.980469 71.949219 152.226562 72.175781 152.71875 72.175781 C 152.917969 72.175781 153.121094 72.136719 153.328125 72.0625 C 153.574219 71.976562 153.695312 71.871094 153.695312 71.75 Z M 153.707031 70.777344 "/>
<path style=" stroke:none;fill-rule:nonzero;fill:rgb(0%,0%,0%);fill-opacity:1;" d="M 159.503906 72.140625 C 159.503906 72.332031 159.332031 72.492188 158.984375 72.625 C 158.675781 72.746094 158.363281 72.804688 158.050781 72.804688 C 157.195312 72.804688 156.765625 72.347656 156.765625 71.4375 L 156.765625 69.289062 C 156.765625 69.019531 156.746094 68.851562 156.699219 68.789062 C 156.65625 68.730469 156.511719 68.667969 156.269531 68.609375 C 156.207031 68.59375 156.175781 68.53125 156.175781 68.425781 C 156.175781 68.3125 156.199219 68.242188 156.246094 68.21875 C 156.671875 68.007812 157.042969 67.632812 157.355469 67.09375 C 157.402344 67.019531 157.484375 66.996094 157.613281 67.023438 C 157.699219 67.050781 157.742188 67.101562 157.746094 67.175781 L 157.769531 67.917969 C 157.769531 67.972656 157.78125 68.011719 157.800781 68.035156 C 157.828125 68.070312 157.890625 68.089844 157.988281 68.089844 L 159.308594 68.089844 C 159.382812 68.089844 159.382812 68.179688 159.308594 68.367188 C 159.21875 68.59375 159.085938 68.703125 158.90625 68.703125 L 158.015625 68.703125 C 157.859375 68.703125 157.765625 68.730469 157.730469 68.78125 C 157.703125 68.816406 157.6875 68.914062 157.6875 69.070312 L 157.6875 71.007812 C 157.6875 71.5 157.730469 71.808594 157.820312 71.9375 C 157.933594 72.105469 158.199219 72.1875 158.617188 72.1875 C 158.753906 72.1875 158.921875 72.164062 159.121094 72.121094 C 159.316406 72.074219 159.421875 72.050781 159.433594 72.050781 C 159.480469 72.050781 159.503906 72.082031 159.503906 72.140625 Z M 159.503906 72.140625 "/>
<path style=" stroke:none;fill-rule:nonzero;fill:rgb(0%,0%,0%);fill-opacity:1;" d="M 168.070312 72.128906 C 168.070312 72.210938 167.917969 72.335938 167.617188 72.503906 C 167.316406 72.671875 167.074219 72.757812 166.890625 72.757812 C 166.738281 72.757812 166.601562 72.683594 166.484375 72.53125 C 166.363281 72.382812 166.28125 72.304688 166.234375 72.304688 C 166.199219 72.304688 166.011719 72.386719 165.671875 72.550781 C 165.335938 72.710938 164.992188 72.792969 164.648438 72.792969 C 164.328125 72.792969 164.054688 72.699219 163.839844 72.507812 C 163.601562 72.296875 163.484375 72.015625 163.484375 71.65625 C 163.484375 70.972656 164.265625 70.480469 165.828125 70.183594 C 166.09375 70.132812 166.230469 70.027344 166.234375 69.859375 L 166.246094 69.480469 C 166.269531 68.832031 165.984375 68.507812 165.390625 68.507812 C 165.21875 68.507812 165.058594 68.660156 164.90625 68.964844 C 164.753906 69.269531 164.539062 69.433594 164.253906 69.457031 C 163.929688 69.488281 163.769531 69.351562 163.769531 69.046875 C 163.769531 68.859375 164.007812 68.636719 164.492188 68.382812 C 164.996094 68.121094 165.480469 67.988281 165.945312 67.988281 C 166.746094 67.988281 167.140625 68.367188 167.132812 69.132812 L 167.109375 71.570312 C 167.105469 71.828125 167.214844 71.957031 167.4375 71.957031 C 167.480469 71.957031 167.5625 71.945312 167.683594 71.925781 C 167.804688 71.90625 167.878906 71.898438 167.898438 71.898438 C 168.011719 71.898438 168.070312 71.976562 168.070312 72.128906 Z M 166.246094 70.777344 C 166.25 70.679688 166.226562 70.613281 166.179688 70.582031 C 166.128906 70.550781 166.050781 70.546875 165.945312 70.566406 C 164.996094 70.734375 164.519531 71.042969 164.519531 71.496094 C 164.519531 71.949219 164.765625 72.175781 165.257812 72.175781 C 165.457031 72.175781 165.660156 72.136719 165.867188 72.0625 C 166.113281 71.976562 166.234375 71.871094 166.234375 71.75 Z M 166.246094 70.777344 "/>
<path style=" stroke:none;fill-rule:nonzero;fill:rgb(0%,0%,0%);fill-opacity:1;" d="M 175.046875 72.140625 C 175.046875 72.332031 174.875 72.492188 174.527344 72.625 C 174.21875 72.746094 173.910156 72.804688 173.59375 72.804688 C 172.738281 72.804688 172.308594 72.347656 172.308594 71.4375 L 172.308594 69.289062 C 172.308594 69.019531 172.289062 68.851562 172.246094 68.789062 C 172.199219 68.730469 172.058594 68.667969 171.8125 68.609375 C 171.75 68.59375 171.71875 68.53125 171.71875 68.425781 C 171.71875 68.3125 171.742188 68.242188 171.789062 68.21875 C 172.214844 68.007812 172.585938 67.632812 172.902344 67.09375 C 172.945312 67.019531 173.027344 66.996094 173.15625 67.023438 C 173.242188 67.050781 173.289062 67.101562 173.292969 67.175781 L 173.316406 67.917969 C 173.316406 67.972656 173.324219 68.011719 173.34375 68.035156 C 173.371094 68.070312 173.433594 68.089844 173.535156 68.089844 L 174.851562 68.089844 C 174.925781 68.089844 174.925781 68.179688 174.851562 68.367188 C 174.761719 68.59375 174.628906 68.703125 174.449219 68.703125 L 173.558594 68.703125 C 173.402344 68.703125 173.308594 68.730469 173.273438 68.78125 C 173.246094 68.816406 173.230469 68.914062 173.230469 69.070312 L 173.230469 71.007812 C 173.230469 71.5 173.277344 71.808594 173.363281 71.9375 C 173.476562 72.105469 173.742188 72.1875 174.160156 72.1875 C 174.296875 72.1875 174.464844 72.164062 174.664062 72.121094 C 174.859375 72.074219 174.964844 72.050781 174.976562 72.050781 C 175.023438 72.050781 175.046875 72.082031 175.046875 72.140625 Z M 175.046875 72.140625 "/>
<path style=" stroke:none;fill-rule:nonzero;fill:rgb(0%,0%,0%);fill-opacity:1;" d="M 178.011719 65.84375 C 178.011719 66.023438 177.941406 66.195312 177.808594 66.347656 C 177.671875 66.503906 177.523438 66.582031 177.359375 66.582031 C 177.175781 66.582031 177.023438 66.527344 176.90625 66.417969 C 176.785156 66.308594 176.726562 66.164062 176.726562 65.984375 C 176.726562 65.8125 176.800781 65.648438 176.945312 65.5 C 177.085938 65.347656 177.242188 65.273438 177.40625 65.273438 C 177.808594 65.273438 178.011719 65.464844 178.011719 65.84375 Z M 178.667969 72.550781 C 178.648438 72.664062 178.601562 72.730469 178.527344 72.746094 C 178.503906 72.75 178.410156 72.746094 178.242188 72.734375 C 177.652344 72.695312 177.078125 72.703125 176.507812 72.757812 C 176.355469 72.773438 176.257812 72.765625 176.21875 72.738281 C 176.179688 72.710938 176.160156 72.648438 176.160156 72.550781 C 176.160156 72.457031 176.265625 72.382812 176.472656 72.324219 C 176.703125 72.257812 176.816406 72.039062 176.816406 71.667969 L 176.816406 70.113281 C 176.816406 69.800781 176.785156 69.582031 176.722656 69.457031 C 176.636719 69.28125 176.457031 69.152344 176.183594 69.058594 C 176.0625 69.015625 176 68.953125 176 68.863281 C 176 68.75 176.089844 68.664062 176.265625 68.609375 C 176.597656 68.507812 176.890625 68.371094 177.148438 68.199219 C 177.351562 68.058594 177.480469 67.988281 177.527344 67.988281 C 177.683594 67.988281 177.761719 68.089844 177.757812 68.296875 C 177.742188 69.332031 177.734375 70.386719 177.734375 71.460938 C 177.734375 71.714844 177.769531 71.898438 177.84375 72.011719 C 177.929688 72.132812 178.085938 72.21875 178.320312 72.269531 C 178.574219 72.332031 178.691406 72.421875 178.667969 72.550781 Z M 178.667969 72.550781 "/>
<path style=" stroke:none;fill-rule:nonzero;fill:rgb(0%,0%,0%);fill-opacity:1;" d="M 189.082031 72.539062 C 189.082031 72.667969 189.023438 72.730469 188.898438 72.722656 C 188.09375 72.660156 187.347656 72.660156 186.652344 72.722656 C 186.5 72.734375 186.421875 72.664062 186.421875 72.515625 C 186.421875 72.394531 186.527344 72.332031 186.734375 72.324219 C 187 72.308594 187.132812 72.09375 187.132812 71.679688 L 187.132812 70.101562 C 187.132812 69.21875 186.773438 68.777344 186.054688 68.777344 C 185.675781 68.777344 185.328125 68.84375 185.015625 68.984375 C 184.726562 69.105469 184.582031 69.226562 184.578125 69.351562 L 184.550781 71.703125 C 184.550781 71.945312 184.582031 72.109375 184.640625 72.1875 C 184.683594 72.242188 184.78125 72.28125 184.929688 72.304688 C 185.277344 72.367188 185.453125 72.4375 185.453125 72.527344 C 185.453125 72.601562 185.441406 72.652344 185.421875 72.679688 C 185.398438 72.71875 185.328125 72.738281 185.210938 72.734375 C 184.757812 72.71875 184.105469 72.726562 183.246094 72.757812 C 183.125 72.761719 183.042969 72.75 183.007812 72.726562 C 182.972656 72.703125 182.957031 72.648438 182.957031 72.5625 C 182.957031 72.457031 183.066406 72.394531 183.292969 72.371094 C 183.539062 72.34375 183.660156 72.121094 183.660156 71.703125 L 183.660156 70.089844 C 183.660156 69.65625 183.5625 69.320312 183.363281 69.082031 C 183.191406 68.871094 182.96875 68.761719 182.703125 68.761719 C 182.308594 68.761719 181.953125 68.84375 181.636719 69.003906 C 181.320312 69.164062 181.164062 69.335938 181.164062 69.515625 L 181.164062 71.679688 C 181.164062 71.921875 181.226562 72.09375 181.351562 72.1875 C 181.46875 72.273438 181.675781 72.328125 181.972656 72.347656 C 182.136719 72.355469 182.214844 72.410156 182.214844 72.515625 C 182.214844 72.628906 182.152344 72.6875 182.019531 72.6875 C 181.035156 72.6875 180.320312 72.714844 179.878906 72.769531 C 179.730469 72.789062 179.632812 72.789062 179.589844 72.769531 C 179.554688 72.75 179.535156 72.703125 179.535156 72.625 C 179.535156 72.527344 179.683594 72.441406 179.976562 72.371094 C 180.152344 72.324219 180.242188 72.09375 180.242188 71.679688 L 180.242188 69.859375 C 180.242188 69.398438 180.117188 69.132812 179.867188 69.058594 C 179.660156 69 179.53125 68.957031 179.488281 68.929688 C 179.441406 68.902344 179.417969 68.855469 179.417969 68.792969 C 179.417969 68.722656 179.625 68.570312 180.035156 68.34375 C 180.46875 68.097656 180.734375 67.976562 180.832031 67.976562 C 180.914062 67.976562 180.984375 68.09375 181.042969 68.335938 C 181.097656 68.574219 181.144531 68.691406 181.175781 68.691406 C 181.21875 68.691406 181.339844 68.632812 181.535156 68.507812 C 181.78125 68.355469 182 68.242188 182.199219 68.164062 C 182.523438 68.039062 182.855469 67.976562 183.199219 67.976562 C 183.472656 67.976562 183.714844 68.035156 183.917969 68.152344 C 184.0625 68.230469 184.191406 68.339844 184.304688 68.480469 C 184.398438 68.597656 184.445312 68.65625 184.445312 68.65625 C 184.445312 68.65625 184.546875 68.597656 184.753906 68.480469 C 184.992188 68.339844 185.230469 68.230469 185.457031 68.152344 C 185.792969 68.035156 186.117188 67.976562 186.433594 67.976562 C 187.515625 67.976562 188.054688 68.570312 188.054688 69.757812 L 188.054688 71.679688 C 188.054688 71.902344 188.105469 72.0625 188.214844 72.160156 C 188.308594 72.238281 188.492188 72.304688 188.769531 72.359375 C 188.980469 72.398438 189.082031 72.457031 189.082031 72.539062 Z M 189.082031 72.539062 "/>
<path style=" stroke:none;fill-rule:nonzero;fill:rgb(0%,0%,0%);fill-opacity:1;" d="M 194.082031 71.703125 C 194.082031 71.871094 193.851562 72.082031 193.394531 72.335938 C 192.875 72.617188 192.339844 72.757812 191.792969 72.757812 C 191.195312 72.757812 190.695312 72.5625 190.289062 72.171875 C 189.855469 71.753906 189.640625 71.203125 189.640625 70.511719 C 189.640625 69.730469 189.882812 69.101562 190.367188 68.628906 C 190.820312 68.183594 191.375 67.964844 192.035156 67.964844 C 192.425781 67.964844 192.789062 68.089844 193.128906 68.335938 C 193.433594 68.558594 193.632812 68.8125 193.730469 69.09375 C 193.765625 69.195312 193.820312 69.25 193.890625 69.261719 C 193.996094 69.28125 194.046875 69.351562 194.046875 69.46875 C 194.046875 69.628906 193.851562 69.769531 193.464844 69.882812 L 190.738281 70.695312 C 190.917969 71.636719 191.398438 72.105469 192.183594 72.105469 C 192.636719 72.105469 193.152344 71.9375 193.730469 71.605469 C 193.820312 71.554688 193.902344 71.53125 193.984375 71.53125 C 194.050781 71.53125 194.082031 71.585938 194.082031 71.703125 Z M 192.679688 69.328125 C 192.679688 69.109375 192.589844 68.917969 192.414062 68.753906 C 192.242188 68.589844 192.023438 68.507812 191.769531 68.507812 C 191.042969 68.507812 190.679688 69.03125 190.679688 70.078125 L 190.679688 70.222656 L 192.289062 69.734375 C 192.550781 69.660156 192.679688 69.523438 192.679688 69.328125 Z M 192.679688 69.328125 "/>
</g>
</svg>
