<?xml version="1.0" encoding="UTF-8"?>
<svg xmlns="http://www.w3.org/2000/svg" xmlns:xlink="http://www.w3.org/1999/xlink" width="130pt" height="130pt" viewBox="0 0 130 130" version="1.1">
<g id="surface1">
<path style=" stroke:none;fill-rule:nonzero;fill:rgb(0%,0%,0%);fill-opacity:1;" d="M 112.667969 10.398438 L 17.335938 10.398438 C 13.507812 10.398438 10.398438 13.507812 10.398438 17.335938 L 10.398438 112.664062 C 10.398438 116.492188 13.507812 119.601562 17.335938 119.601562 L 112.664062 119.601562 C 116.492188 119.601562 119.601562 116.492188 119.601562 112.667969 L 119.601562 17.335938 C 119.601562 13.507812 116.492188 10.398438 112.667969 10.398438 Z M 70.199219 94.074219 C 70.199219 104.46875 64.105469 109.199219 55.207031 109.199219 C 47.167969 109.199219 41.367188 103.808594 39 98.800781 L 47.171875 93.851562 C 48.75 96.648438 51.148438 98.800781 54.601562 98.800781 C 57.898438 98.800781 59.800781 97.511719 59.800781 92.492188 L 59.800781 59.800781 L 70.199219 59.800781 Z M 92.761719 109.199219 C 83.546875 109.199219 78.3125 104.554688 75.398438 98.800781 L 83.199219 93.601562 C 85.328125 97.070312 87.636719 100.394531 92.53125 100.394531 C 96.640625 100.394531 98.800781 98.34375 98.800781 95.503906 C 98.800781 92.101562 96.570312 90.894531 92.046875 88.917969 L 89.566406 87.855469 C 82.40625 84.804688 77.648438 80.980469 77.648438 72.90625 C 77.648438 65.464844 83.316406 59.800781 92.179688 59.800781 C 98.484375 59.800781 103.019531 61.996094 106.289062 67.746094 L 98.5625 72.707031 C 96.863281 69.65625 95.027344 68.457031 92.179688 68.457031 C 89.269531 68.457031 87.429688 70.296875 87.429688 72.707031 C 87.429688 75.683594 89.273438 76.886719 93.53125 78.730469 L 96.011719 79.792969 C 104.441406 83.40625 109.199219 87.089844 109.199219 95.375 C 109.199219 104.308594 102.183594 109.199219 92.761719 109.199219 Z M 92.761719 109.199219 "/>
</g>
</svg>
